<?xml version="1.0" standalone="no"?>
<!DOCTYPE svg PUBLIC "-//W3C//DTD SVG 1.1//EN" "http://www.w3.org/Graphics/SVG/1.1/DTD/svg11.dtd" >
<!--
2013-9-30: Created.
-->
<svg>
<metadata>
Created by iconfont
</metadata>
<defs>

<font id="iconfont" horiz-adv-x="1024" >
  <font-face
    font-family="iconfont"
    font-weight="500"
    font-stretch="normal"
    units-per-em="1024"
    ascent="896"
    descent="-128"
  />
    <missing-glyph />
    
    <glyph glyph-name="duobianxing" unicode="&#59915;" d="M141.613176 475.376941l142.878118-439.597176h462.185412l142.878118 439.597176-373.940706 271.661177-374.000942-271.661177zM515.614118 896l515.553882-374.603294-196.969412-606.08753H196.969412L0 521.336471 515.614118 896z"  horiz-adv-x="1084" />

    
    <glyph glyph-name="yuanxing" unicode="&#59916;" d="M512 0A384 384 0 1 1 512 768a384 384 0 0 1 0-768z m0-128A512 512 0 1 0 512 896a512 512 0 0 0 0-1024z"  horiz-adv-x="1024" />

    
    <glyph glyph-name="jiantou" unicode="&#59917;" d="M576 384v-512H448V384H256l256 512 256-512H576z"  horiz-adv-x="1024" />

    
    <glyph glyph-name="juxing" unicode="&#59918;" d="M128 768v-768h768V768H128zM0 896h1024v-1024H0V896z"  horiz-adv-x="1024" />

    
    <glyph glyph-name="daitanlou" unicode="&#59695;" d="M573.8 895.57l-28.98-72.02C792 752.32 914.53 501.09 818.5 262.42l74.59-21.5C1005.15 519.33 862.19 812.44 573.8 895.57zM515.86 751.51l-28.98-72.02C651.62 632 733.3 464.54 669.31 305.45l74.61-21.54c80.01 198.83-22.13 408.25-228.06 467.6zM375.47 645.78c-48.1-1.35-92.82-15.78-130.3-40.12-35-22.54-63.91-53.64-83.56-90.37-13.55-25.58-22.36-75.95-13.55-118.54 9.94-47.55 33.78-80.99 43.58-123.27 5.55-23.92 26.2-69.84 0-112.43-40.65-66.03-91.97-48.38-97.74-125.59-7.24-96.86 90.87-200.36 216.53-150.5 39.55 15.69 76.78 45.07 99.82 98.48 42.23 98.71 64.81 121.25 100.27 156.85 17.84 17.8 38.62 38.76 66.39 72.79 45.39 56.34 64.59 120.12 62.78 181.19-4.07 142.88-118.79 255.79-264.22 251.51z m149.05-339.03c-20.71-37.67-45.18-56.45-64.87-71.7-18.44-14.23-31.75-24.47-39.04-46.55-13.66-41.31-31.3-64.64-62.02-80.8-11.84-5.35-24.36-8.08-37.44-8.08-50.19 0-91.05 40.86-91.05 91.05h45.52l0.31-5.31c2.63-22.65 21.86-40.21 45.22-40.21 6.49 0 12.86 1.37 17.41 3.41 16.05 8.54 27.65 20.14 38.92 54.29 11.72 35.39 33.46 52.12 54.51 68.4 17.98 13.88 36.65 28.22 52.69 57.47 11.95 21.85 18.55 45.64 18.55 66.81 0 63.85-49.96 113.81-113.81 113.81s-113.81-49.96-113.81-113.81H230.1l0.23 8.87c4.46 85.06 72.74 150.46 159.1 150.46 89.34 0 159.33-69.99 159.33-159.33 0-28.81-8.65-60.33-24.24-88.78z m-188.2 90.52c0 29 23.8 52.53 53.11 52.53 29.32 0 53.11-23.53 53.11-52.53 0-28.99-23.8-52.53-53.11-52.53-29.32 0-53.11 23.53-53.11 52.53z"  horiz-adv-x="1024" />

    
    <glyph glyph-name="daichuli" unicode="&#59694;" d="M1003.162148 705.016915L852.855032 554.659816H682.065122V725.149831L832.742108 875.50693A294.558364 294.558364 0 0 1 724.850068 895.99972a298.336035 298.336035 0 0 1-211.275665-87.289288c-56.050279-56.000297-87.529204-132.003556-87.519208-211.245677 0.069975-36.907015 6.887577-73.484146 20.112924-107.932025l-276.102857-276.202822C75.988361 213.119982-0.134856 136.706867 0.005095 42.599977c0.139951-94.10689 76.473094-170.310079 170.539998-170.240104 94.0769 0.069975 170.300082 76.373129 170.300082 170.490016l276.112854 276.212818a294.781285 294.781285 0 0 1 107.882043-20.482793c164.99195 0.059979 298.734894 133.842909 298.794873 298.894838a294.236477 294.236477 0 0 1-20.472797 107.542163zM169.575434-42.400117c-47.013459 0.069975-85.090062 38.206558-85.090062 85.240009a84.634223 84.634223 0 0 0 24.901239 60.588683 84.560249 84.560249 0 0 0 60.678651 24.651327c47.013459-0.19993 84.980101-38.45647 84.84015-85.479925-0.129954-47.033452-38.316519-85.070069-85.329978-85.000094z"  horiz-adv-x="1024" />

    
    <glyph glyph-name="wenduji" unicode="&#59692;" d="M559.73902893 277.83087134000004V485.13258362c0 18.53942872-15.14053369 33.67996239-33.67996239 33.67996239-18.53942872 0-33.71086097-15.14053369-33.71086097-33.67996239v-207.33261085a100.94718933 100.94718933 0 0 1-67.42172265-96.03424072c0-55.61828614 45.51429748-101.13258362 101.13258362-101.13258362s101.10168433 45.51429748 101.10168504 101.13258362c0 43.81484962-28.64341736 80.89370704-67.42172265 96.06513929z m67.42172265 38.74740601V653.68688989c0 55.61828614-45.4833982 101.10168433-101.10168504 101.10168433a101.41067505 101.41067505 0 0 1-101.13258362-101.13258362v-337.07771325A168.3380127 168.3380127 0 0 1 357.50476098 181.76573205c0-92.69714356 75.85716271-168.55430627 168.55430556-168.55430627s168.52340698 75.85716271 168.52340698 168.55430627c0 55.61828614-26.97486878 104.46968078-67.42172194 134.8125453z m-101.10168504-269.6559906a135.21423316 135.21423316 0 0 0-134.84344459 134.8434453c0 50.55084252 26.97486878 92.69714356 67.42172265 116.27311659V653.68688989c0 37.07885742 30.34286523 67.39082336 67.42172194 67.39082336s67.39082336-30.34286523 67.39082336-67.42172265v-355.61714196c40.47775245-23.57597375 67.42172265-67.42172265 67.42172265-116.27311659 0-74.15771484-60.65483117-134.84344459-134.81254601-134.8434453z"  horiz-adv-x="1024" />

    
    <glyph glyph-name="zhuawonengli" unicode="&#59678;" d="M887.1782322 508.22766165l-180.37072237-466.96768039a35.64638745 35.64638745 0 0 1-2.49524726-13.5456276 35.64638745 35.64638745 0 0 0-35.64638827-35.64638826H426.62690142a47.40969617 47.40969617 0 0 0-47.40969615 47.40969617l-239.90019023 298.36026589a42.41920166 42.41920166 0 0 0 12.47623628 59.88593161 44.91444892 44.91444892 0 0 0 63.09410641-3.2081748s44.20152053-56.67775681 47.40969534-59.88593162c35.64638745-37.78517093 78.77851748 18.89258588 69.51045603 71.29277574a1806.91539944 1806.91539944 0 0 0-40.99334574 263.42680599 48.83555127 48.83555127 0 0 0 35.64638828 56.67775681 47.05323157 47.05323157 0 0 0 56.67775597-35.64638746l52.40019068-221.00760516a19.24904965 19.24904965 0 0 1 18.89258506-14.9714827 19.24904965 19.24904965 0 0 1 19.24904964 19.24904965V732.4434408a47.40969617 47.40969617 0 1 0 94.81939151 0V485.05750964a29.9429654 29.9429654 0 0 1 29.94296622-29.94296621 29.9429654 29.9429654 0 0 1 29.23003785 23.17015201l48.12262371 201.04562795a47.05323157 47.05323157 0 1 0 91.61121671-22.81368823l-53.82604577-221.00760434a89.47243323 89.47243323 0 0 0 28.51711028-31.72528592l63.09410642 142.58555146a47.76615994 47.76615994 0 0 0 59.88593161 25.30893548 49.19201504 49.19201504 0 0 0 22.10076067-63.09410641z m0 0"  horiz-adv-x="1024" />

    
    <glyph glyph-name="zhuashou" unicode="&#59683;" d="M868.9006592 264.32726347000005S780.37416291 173.41453993000005 741.9316436 129.30952871c-38.44251931-44.10501123-76.18111968-12.27440536-76.18111967-12.27440537-65.3717637 34.34356749-50.78717172 73.64425958-50.78717173 73.64425958-181.31706119 4.96653914-202.55412161 110.46168208-304.72592711 122.74622618C224.54181266 323.72657918000004 231.0117836 350.68696403 231.0117836 350.68696403c-4.95640039 76.00296735 76.58087611 84.5861435 130.0142616 60.93243957 53.43193709-23.65442812 114.27167951-24.54953491 114.27167953-24.54953491-9.5434606 30.75589836-133.91695619 106.18457795-203.15085948 122.7433294-69.2331791 16.56164825-77.09722817-1.18261278-114.27095532 49.09834564-37.17445135 50.28095842 0 85.92228592 0 85.92228591 39.17106092-5.26708067 152.36151517-24.54953491 152.36151516-24.54953492 21.34568989 65.52239657 152.36296356 24.54953491 152.36296355 24.54953492 43.93047988 38.87776135 88.87845576 0 88.87845576 0 75.98631084 14.12255467 84.15524662-10.11267901 177.75618732-85.92228591 93.60094071-75.81033111 101.57506764-208.66561532 101.57506764-208.66561532l38.09055984-36.8203193c31.26645684-26.05948447 0-49.09834564 0-49.09834564zM564.17545629 460.71774923l50.78789591-49.09834563c-0.07821322 45.01677454-50.78789591 49.09834564-50.78789591 49.09834563z m38.09055984 61.36985422l63.4845078-61.36985422c-0.07676482 45.01677454-63.4845078 61.36985422-63.4845078 61.36985422z m76.18111967 0l50.78789592-49.09544885c-0.07676482 45.01749874-50.78789591 49.09544886-50.78789592 49.09544885z"  horiz-adv-x="1024" />

    
    <glyph glyph-name="zhihuichangzhan" unicode="&#59914;" d="M931.84 26.624000000000024h-31.744V504.832c0 12.8-7.168 23.552-15.872 23.552h-336.896c-8.704 0-15.872-10.24-15.872-23.552v-478.208h-23.04V749.056c0 19.456-7.168 34.816-15.872 34.816h-337.92c-8.704 0-15.872-15.36-15.872-34.816v-722.432h-66.56V-46.08000000000004h898.56v72.704H931.84z m-172.032 117.248c0-30.72-25.088-55.808-55.808-55.808s-55.808 25.088-55.808 55.808 25.088 55.808 55.808 55.808c31.232 0 55.808-25.088 55.808-55.808z m-5.12 104.448c0 14.848 11.776 26.624 26.624 26.624 14.848 0 26.624-11.776 26.624-26.624 0-14.848-12.288-26.624-26.624-26.624-14.336-0.512-26.624 11.776-26.624 26.624z m-83.456-194.56c0-15.36-12.288-27.136-27.136-27.136s-27.136 12.288-27.136 27.136 12.288 27.136 27.136 27.136c14.848 0.512 27.136-11.776 27.136-27.136z m182.272 27.648c0-19.968-16.384-35.84-35.84-35.84s-35.84 16.384-35.84 35.84c0 19.968 15.872 35.84 35.84 35.84 9.728 0 18.944-4.096 25.6-10.752 6.144-6.144 10.24-15.36 10.24-25.088z m-250.368 382.464h224.256v-48.128h-224.256v48.128z m0-88.064h224.256v-48.128h-224.256v48.128z m13.312-116.736c17.92 0 32.256-14.336 32.256-32.256s-14.336-32.256-32.256-32.256-32.256 14.336-32.256 32.256 14.336 32.256 32.256 32.256zM207.872 661.504h224.256v-48.128H207.872v48.128z m0-90.624h224.256v-48.128H207.872v48.128z m0-82.944h224.256v-48.128H207.872v48.128z m0-82.432h224.256v-48.128H207.872v48.128z m0-82.432h224.256v-48.128H207.872v48.128z"  horiz-adv-x="1024" />

    
    <glyph glyph-name="yinpin" unicode="&#59913;" d="M703.488 833.5360000000001H157.696c-18.432-1.024-32.768-15.36-33.792-33.792v-832.512c1.024-18.432 15.36-32.768 33.792-33.792h708.608c18.432 1.024 32.768 15.36 33.792 33.792V636.928L703.488 833.5360000000001z m-25.6-545.792c0-29.696-30.72-58.368-67.584-62.464-37.888-5.12-67.584 13.312-67.584 44.032 0 29.696 30.72 58.368 67.584 62.464 25.6 3.072 39.936-5.12 39.936-5.12v133.12c0 14.336-15.36 9.216-15.36 9.216L494.592 424.96s-16.384-6.144-16.384-19.456v-160.768c0-29.696-27.648-58.368-64.512-63.488-37.888-5.12-67.584 13.312-67.584 43.008 0 29.696 30.72 58.368 67.584 64.512 25.6 4.096 36.864-4.096 36.864-4.096V451.584c0 19.456 15.36 38.912 34.816 45.056l158.72 48.128c19.456 5.12 34.816-6.144 34.816-24.576v-232.448zM708.608 833.5360000000001v-157.696c1.024-18.432 15.36-32.768 33.792-33.792h157.696L708.608 833.5360000000001z"  horiz-adv-x="1024" />

    
    <glyph glyph-name="shipin2" unicode="&#59912;" d="M405.504 209.91999999999996h212.992V476.16H405.504v-266.24z m66.56 173.056c0 7.168 5.12 10.24 11.264 7.168l71.68-35.84c13.312-7.168 13.312-17.408 0-23.552l-10.24-5.12-60.416-29.696c-7.168-3.072-12.288 0-12.288 7.168v79.872zM645.12 209.91999999999996h32.768c11.264 0 21.504 9.216 21.504 21.504v58.368H645.12V209.91999999999996zM325.632 454.656v-58.368H378.88V476.16h-32.768c-11.264 0-20.48-9.216-20.48-21.504zM325.632 231.42399999999998c0-11.264 9.216-21.504 21.504-21.504H378.88v79.872h-53.248v-58.368zM325.632 369.664H378.88v-53.248h-53.248zM677.888 476.16H645.12v-79.872h53.248v58.368c0 12.288-9.216 21.504-20.48 21.504zM645.12 369.664h53.248v-53.248H645.12zM703.488 833.5360000000001H157.696c-18.432-1.024-32.768-15.36-33.792-33.792v-832.512c1.024-18.432 15.36-32.768 33.792-33.792h708.608c18.432 1.024 32.768 15.36 33.792 33.792V636.928L703.488 833.5360000000001z m21.504-618.496c0-17.408-14.336-31.744-31.744-31.744H330.752c-17.408 0-31.744 14.336-31.744 31.744v256c0 17.408 14.336 31.744 31.744 31.744h362.496c17.408 0 31.744-14.336 31.744-31.744v-256zM708.608 833.5360000000001v-157.696c1.024-18.432 15.36-32.768 33.792-33.792h157.696L708.608 833.5360000000001z"  horiz-adv-x="1024" />

    
    <glyph glyph-name="tupian" unicode="&#59911;" d="M567.296 277.504l63.488 59.392 65.536-71.68V482.304H327.68v-188.416l119.808 102.4zM703.488 833.5360000000001H157.696c-18.432-1.024-32.768-15.36-33.792-33.792v-832.512c1.024-18.432 15.36-32.768 33.792-33.792h708.608c18.432 1.024 32.768 15.36 33.792 33.792V636.928L703.488 833.5360000000001z m29.696-646.144H290.816V519.168h442.368v-331.776zM708.608 833.5360000000001v-157.696c1.024-18.432 15.36-32.768 33.792-33.792h157.696L708.608 833.5360000000001z"  horiz-adv-x="1024" />

    
    <glyph glyph-name="zip" unicode="&#59910;" d="M723.968 410.624h-56.32V322.55999999999995h56.32c35.84 1.024 54.272 16.384 55.296 45.056-2.048 27.648-20.48 41.984-55.296 43.008zM703.488 834.56H157.696c-18.432-1.024-32.768-15.36-33.792-33.792v-832.512c1.024-18.432 15.36-32.768 33.792-33.792h708.608c18.432 1.024 32.768 15.36 33.792 33.792V637.952L703.488 834.56zM430.08 205.82399999999996H227.328V230.39999999999998l150.528 179.2H239.616v29.696h185.344v-27.648L272.384 233.47199999999998H430.08v-27.648z m109.568 0h-36.864V439.296h36.864v-233.472z m188.416 88.064h-61.44v-87.04h-37.888V439.296h102.4c54.272-2.048 82.944-25.6 86.016-70.656 0-49.152-29.696-74.752-89.088-74.752zM708.608 833.5360000000001v-157.696c1.024-18.432 15.36-32.768 33.792-33.792h157.696L708.608 833.5360000000001z"  horiz-adv-x="1024" />

    
    <glyph glyph-name="text" unicode="&#59909;" d="M703.488 834.56H157.696c-18.432-1.024-32.768-15.36-33.792-33.792v-832.512c1.024-18.432 15.36-32.768 33.792-33.792h708.608c18.432 1.024 32.768 15.36 33.792 33.792V637.952L703.488 834.56z m-49.152-354.304H538.624v-296.96h-51.2v296.96H369.664v43.008H655.36v-43.008zM708.608 833.536v-157.696c1.024-18.432 15.36-32.768 33.792-33.792h157.696L708.608 833.536z"  horiz-adv-x="1024" />

    
    <glyph glyph-name="weizhiwenjian" unicode="&#59908;" d="M703.488 833.5360000000001H157.696c-18.432-1.024-32.768-15.36-33.792-33.792v-832.512c1.024-18.432 15.36-32.768 33.792-33.792h708.608c18.432 1.024 32.768 15.36 33.792 33.792V636.928L703.488 833.5360000000001zM535.552 165.88800000000003h-59.392v57.344h59.392v-57.344z m33.792 180.224c-27.648-18.432-40.96-39.936-39.936-64.512v-14.336H481.28v18.432c-1.024 34.816 14.336 63.488 47.104 84.992 33.792 23.552 50.176 48.128 49.152 71.68-4.096 33.792-22.528 51.2-57.344 54.272-41.984 0-68.608-23.552-78.848-71.68L389.12 437.248c14.336 73.728 60.416 108.544 139.264 104.448 66.56-4.096 102.4-34.816 109.568-94.208 1.024-38.912-21.504-72.704-68.608-101.376zM708.608 833.5360000000001v-157.696c1.024-18.432 15.36-32.768 33.792-33.792h157.696L708.608 833.5360000000001z"  horiz-adv-x="1024" />

    
    <glyph glyph-name="dianzan" unicode="&#59906;" d="M884.876 472.857H646.97C739.156 813.32 583.454 830.71 583.454 830.71c-65.993 0-52.313-52.182-57.303-60.882 0-166.502-176.85-296.971-176.85-296.971v-472.172c0-46.608 63.517-63.394 88.433-63.394h357.452c33.641 0 61.036 88.224 61.036 88.224 88.434 300.706 88.434 390.178 88.434 390.178 0.001 62.128-59.78 57.164-59.78 57.164z m0 0M251.671 472.7H109.215c-29.42 0-29.873-28.896-29.873-28.896l29.42-476.203c0-30.309 30.361-30.309 30.361-30.309H262.42c25.686 0 25.46 20.05 25.46 20.05V436.589c0 36.574-36.209 36.111-36.209 36.111z m0 0"  horiz-adv-x="1024" />

    
    <glyph glyph-name="zhongzhi1" unicode="&#59904;" d="M512 784.384c-221.184 0-400.384-179.2-400.384-400.384S290.816-16.384 512-16.384 912.384 162.816 912.384 384 733.184 784.384 512 784.384z m0-719.872c-177.152 0-319.488 143.36-319.488 319.488s143.36 319.488 319.488 319.488 319.488-143.36 319.488-319.488S689.152 64.512 512 64.512zM610.304 244.736H413.696c-22.528 0-40.96 18.432-40.96 40.96V482.304c0 22.528 18.432 40.96 40.96 40.96h196.608c22.528 0 40.96-18.432 40.96-40.96v-196.608c0-22.528-18.432-40.96-40.96-40.96z"  horiz-adv-x="1024" />

    
    <glyph glyph-name="qiyong1" unicode="&#59905;" d="M512 784.384c-221.184 0-400.384-179.2-400.384-400.384S290.816-16.384 512-16.384 912.384 162.816 912.384 384 733.184 784.384 512 784.384z m0-719.872c-177.152 0-319.488 143.36-319.488 319.488s143.36 319.488 319.488 319.488 319.488-143.36 319.488-319.488S689.152 64.512 512 64.512zM454.656 214.016c-7.168-5.12-17.408-6.144-25.6-1.024-8.192 6.144-13.312 15.36-13.312 25.6V529.408c0 10.24 5.12 20.48 13.312 25.6s18.432 5.12 25.6-1.024l201.728-145.408c7.168-5.12 12.288-14.336 12.288-24.576s-4.096-19.456-12.288-24.576c1.024 0-201.728-145.408-201.728-145.408z"  horiz-adv-x="1024" />

    
    <glyph glyph-name="quxiao" unicode="&#59675;" d="M792.03885783 106.54046183000003a394.2220421 394.2220421 0 1 0-557.49061717 557.49061718 394.2220421 394.2220421 0 0 0 557.49061717-557.49061718z m-42.87922822 42.87922822a333.57249722 333.57249722 0 1 1-471.73216074 471.73216072 333.57249722 333.57249722 0 0 1 471.73216074-471.73216072zM341.77663632 513.9841045200001l300.21524702-300.21524704a30.32477282 30.32477282 0 1 1 42.87922827 42.87922824l-300.21524706 300.21524703a30.32477282 30.32477282 0 1 1-42.87922821-42.87922823zM384.65586455 213.70820806999996l300.21524703 300.21524703a30.32477282 30.32477282 0 1 1-42.87922822 42.87922823l-300.21524704-300.21524703a30.32477282 30.32477282 0 1 1 42.87922823-42.87922823z"  horiz-adv-x="1024" />

    
    <glyph glyph-name="qiyong" unicode="&#59676;" d="M512 784.00000031C291.08 784.00000031 111.99999969 604.9200000000001 111.99999969 384s179.08000031-400.00000031 400.00000031-400.00000031 400.00000031 179.08000031 400.00000031 400.00000031A400.00000031 400.00000031 0 0 1 512 784.00000031z m0-720a319.99999969 319.99999969 0 1 0 0 639.99999938 319.99999969 319.99999969 0 0 0 0-639.99999938zM672.00000031 518.4l-200.00000062-198L368.40000031 424.00000031A40.00000031 40.00000031 0 0 1 312.00000031 367.60000031000004l131.59999969-132a40.00000031 40.00000031 0 0 1 56.80000031 0l225.99999938 226.39999969A40.00000031 40.00000031 0 0 1 672.00000031 518.4z"  horiz-adv-x="1024" />

    
    <glyph glyph-name="biaoge-tingyong" unicode="&#59677;" d="M512 779.5078125C293.6796875 779.5078125 116.4921875 602.3203125 116.4921875 384s177.1875-395.5078125 395.5078125-395.5078125 395.5078125 177.1875 395.5078125 395.5078125S730.3203125 779.5078125 512 779.5078125z m0-716.26464844c-177.58300781 0-321.15234375 143.96484375-321.15234375 321.15234375S334.8125 705.54785156 512 705.54785156c177.58300781 0 321.15234375-143.96484375 321.15234375-321.15234375s-143.56933594-321.15234375-321.15234375-321.15234375zM242.26367187 205.62597656000003L733.484375 620.51367188l48.64746094-57.34863282L290.91113281 148.27734375l-48.64746093 57.34863281z"  horiz-adv-x="1024" />

    
    <glyph glyph-name="TOC" unicode="&#59903;" d="M254.5945495 474.38112705v31.81415715h151.84029419v-31.81415715h-56.39782354v-156.1785877h-40.49074496V474.38112705H254.5945495zM512 316.75644150000005c-59.29001922 1.44609785-89.65807852 33.26025499-91.10417635 95.44246988 1.44609785 63.62831351 31.81415715 96.8885685 91.10417635 98.33466634 57.84392138-1.44609785 86.76588206-34.70635282 89.65807852-98.33466635-1.44609785-62.18221567-31.81415715-93.99637204-89.65807852-95.44246987z m0 164.85517553c-31.81415715 0-49.16733355-23.13756855-47.72123495-69.41270565 0-46.2751371 15.90707857-69.41270565 47.72123495-67.96660704 31.81415715 0 46.2751371 23.13756855 46.2751371 67.96660704 0 46.2751371-14.46098073 69.41270565-46.2751371 69.41270565zM779.52813616 445.45916636h-43.38294063c-1.44609785 21.69147071-13.01488211 34.70635282-36.15245068 36.15245067-21.69147071-1.44609785-34.70635282-24.5836664-36.15245144-69.41270566 1.44609785-44.82903926 13.01488211-67.9666078 36.15245144-67.96660703s34.70635282 13.01488211 36.15245068 36.15245067h43.38294063c-2.89219645-41.9368428-28.92196069-62.18221567-79.53539131-63.62831351-50.6134314 1.44609785-76.64319563 33.26025499-78.08929424 95.44246988 1.44609785 63.62831351 27.47586284 96.8885685 78.08929424 98.33466634 50.6134314-1.44609785 76.64319563-23.13756855 79.53539131-65.07441136zM837.37205754 686.9575383L529.3531764 776.61561605C517.78439214 779.5078125 504.76951002 779.5078125 493.20072575 776.61561605L185.18184385 686.9575383c-26.029765-7.23048998-43.38294141-30.36805853-43.38294065-56.39782354v-323.9259597C141.7989032 157.68565732000002 266.16333377 52.12050101 503.32341141-10.061714649999999l8.67658859-1.44609785 8.67658859 1.44609785c237.16007765 62.18221567 361.52450898 167.74737199 361.52450821 315.24937187V630.55971476c-1.44609785 26.029765-18.79927425 49.16733355-44.82903926 56.39782354z m-18.79927425-381.76988108c0-114.2417449-99.78076418-199.56152914-308.01888114-255.95935188-208.23811695 56.39782353-306.57278329 143.16370559-306.57278328 255.95935188V630.55971476l308.01888113 89.65807852 308.01888113-89.65807852v-325.37205753z"  horiz-adv-x="1024" />

    
    <glyph glyph-name="shangbao" unicode="&#59674;" d="M615.99999969 18.79999969000005H284.79999969a122.88 122.88 0 0 0-106.39999969 184.00000031l264 457.36000031a122.88 122.88 0 0 0 212.80000031 0l100.8-174.24a31.99999969 31.99999969 0 0 0-56.00000062-32.00000062L599.19999969 628.0799999999999a58.08 58.08 0 0 1-100.63999969 0l-264-457.36000031a58.08 58.08 0 0 1 50.23999969-87.19999969H615.99999969a31.99999969 31.99999969 0 0 0 0-64.8zM711.12000031 326.23999969m32.16 0l0 0q32.16 0 32.16-32.16l0-243.12q0-32.16-32.16-32.16l0 0q-32.16 0-32.16 32.16l0 243.12q0 32.16 32.16 32.16ZM834.24000031 249.28000031A27.91999969 27.91999969 0 0 0 816.00000031 256.00000031l-74.88 63.99999938-70.48000031-61.51999969a28.00000031 28.00000031 0 0 0-36.79999969 42.16000031l88.8 77.43999938a28.00000031 28.00000031 0 0 0 36.63999938 0l93.28000031-79.99999969a28.00000031 28.00000031 0 0 0-18.24-49.27999969zM540.08 222.72000000000003a41.28 41.28 0 0 0 28.72000031-10.8 34.24000031 34.24000031 0 0 0 11.91999938-26.32000031A33.76000031 33.76000031 0 0 0 568.80000031 160.00000031000002a41.28 41.28 0 0 0-28.72000031-10.8A40.48000031 40.48000031 0 0 0 511.52 160.00000031000002a34.00000031 34.00000031 0 0 0-11.68000031 25.83999938 34.56 34.56 0 0 0 11.68000031 26.32000031 40.48000031 40.48000031 0 0 0 28.56 10.56z m35.35999969 274.24000031l-7.99999969-238.00000031h-54.96l-7.99999969 238.00000031z"  horiz-adv-x="1024" />

    
    <glyph glyph-name="renkou" unicode="&#59896;" d="M565.76-5.759999999999991H452.96l-24 281.28H341.12V498.72c0 61.44 154.56 55.2 168.48 54.72 13.92 0.48 169.92 6.72 169.92-54.72v-223.2h-89.28l-24.48-281.28zM508.64 594.24c-51.84 0-93.6 41.76-93.6 93.6s41.76 93.6 93.6 93.6 93.6-42.24 93.6-93.6c0-51.84-41.76-93.6-93.6-93.6z"  horiz-adv-x="1024" />

    
    <glyph glyph-name="baifenbi" unicode="&#59673;" d="M170.73177083 739.95703125v-200.12695313a39.55078125 39.55078125 0 0 1 39.55078125-39.55078124h107.81542969V28.04296875a39.55078125 39.55078125 0 0 1 39.55078125-39.55078125h537.09960937a39.55078125 39.55078125 0 0 1 39.55078125 39.55078125V500.27929688h107.85498047a39.55078125 39.55078125 0 0 1 39.55078125 39.55078124V739.95703125a39.55078125 39.55078125 0 0 1-39.55078125 39.55078125H210.28255208a39.55078125 39.55078125 0 0 1-39.55078125-39.55078125z m187.3125-692.17822266V603.86279297h536.30859375v-556.08398438a19.77539063 19.77539063 0 0 0-19.77539063-19.77539062H377.81966145a19.77539063 19.77539063 0 0 0-19.77539062 19.77539062zM478.35774739 174.14355468999997l274.79882813 286.30810547a21.99023438 21.99023438 0 0 0 32.03613281-0.39550782 24.91699219 24.91699219 0 0 0-0.35595703-34.09277343l-274.75927735-286.26855469a21.99023438 21.99023438 0 0 0-32.07568359 0.35595703 24.91699219 24.91699219 0 0 0 0.39550781 34.09277344z m247.8647461 120.31347656c-49.59667969 0-89.89892578-42.00292969-89.89892578-93.65625 0-51.65332031 40.30224609-93.65625 89.89892578-93.65625 49.55712891 0 89.859375 42.00292969 89.859375 93.65625 0 51.65332031-40.30224609 93.65625-89.859375 93.65625z m0-151.91455078c-30.77050781 0-55.96435547 26.22216797-55.96435547 58.25830078s25.19384766 58.25830078 55.96435547 58.25830078c30.73095703 0 55.92480469-26.22216797 55.92480468-58.25830078s-25.19384766-58.25830078-55.92480468-58.25830078z m-199.88964844 172.83691406c49.59667969 0 89.89892578 41.96337891 89.89892578 93.61669922S575.92952474 502.65234375 526.33284505 502.65234375C476.77571614 502.65234375 436.47347005 460.64941406 436.47347005 408.99609375c0-51.65332031 40.30224609-93.65625 89.859375-93.65625z m0 152.46826172c31.08691406 0 56.51806641-26.49902344 56.51806641-58.8515625s-25.43115234-58.8515625-56.51806641-58.8515625c-31.04736328 0-56.47851563 26.49902344-56.47851563 58.8515625 0 32.39208984 25.43115234 58.8515625 56.47851563 58.8515625z"  horiz-adv-x="1228" />

    
    <glyph glyph-name="weiquexianquexianyuan" unicode="&#59672;" d="M776.86780365 436.6745674h-45.30986914V572.47246015a31.08467775 31.08467775 0 0 1-31.08467774 30.95296379H533.98582957V657.29675057a97.20547565 97.20547565 0 0 1-99.31291117 97.46890501A100.49834397 100.49834397 0 0 1 338.78459022 652.81844947v-49.39302553H172.29716302A31.08467775 31.08467775 0 0 1 141.21248529 572.47246015v-104.44978566A31.08467775 31.08467775 0 0 1 172.29716302 436.6745674h17.38634507a100.49834397 100.49834397 0 0 0 101.9472061-95.7566135A97.20547565 97.20547565 0 0 0 193.89837985 241.86847207000005H172.29716302A31.08467775 31.08467775 0 0 1 141.21248529 210.78379432999998v-166.4874272a31.08467775 31.08467775 0 0 1 31.08467774-31.08467774h135.40274944A30.95296306 30.95296306 0 0 1 338.78459022 44.29636713000002v15.41062419a100.49834397 100.49834397 0 0 0 95.88832818 101.94720612 97.20547565 97.20547565 0 0 0 99.31291117-97.468905v-19.88892531a30.95296306 30.95296306 0 0 1 30.95296307-31.08467774h135.53446413a31.08467775 31.08467775 0 0 1 31.08467774 31.08467774v197.57210496h49.65645559A97.20547565 97.20547565 0 0 1 878.81500977 341.04966858 100.49834397 100.49834397 0 0 1 776.86780365 436.6745674z"  horiz-adv-x="1024" />

    
    <glyph glyph-name="trajectory-01" unicode="&#59671;" d="M802.69824219 500.67480469c5.93261719-9.88769531 13.84277344-19.77539063 21.75292969-31.640625 7.91015625 13.84277344 15.8203125 25.70800781 25.70800781 39.55078125 13.84277344 19.77539063 27.68554688 33.61816406 35.59570312 59.32617187 15.8203125 49.43847656-19.77539063 85.03417969-67.23632812 85.03417969l-9.88769531-1.97753906c-11.86523438-3.95507813-21.75292969-9.88769531-29.66308594-17.79785156-5.93261719-5.93261719-9.88769531-13.84277344-13.84277344-21.75292969-7.91015625-21.75292969-1.97753906-47.4609375 7.91015625-61.30371094 7.91015625-17.79785156 17.79785156-33.61816406 29.66308594-49.43847656z m-9.88769531 94.921875c3.95507813 15.8203125 13.84277344 17.79785156 29.66308593 23.73046875 45.48339844 0 45.48339844-63.28125 3.95507813-69.21386719-21.75292969-1.97753906-41.52832031 23.73046875-33.61816406 45.48339844zM328.08886719 235.68457031000003c25.70800781 35.59570313 49.43847656 65.25878906 65.25878906 112.71972657 33.61816406 108.76464844-35.59570313 197.75390625-140.40527344 195.77636718-7.91015625-3.95507813-19.77539063-1.97753906-29.66308593-3.95507812-23.73046875-7.91015625-47.4609375-21.75292969-63.28125-39.55078125-11.86523438-17.79785156-23.73046875-31.640625-31.640625-53.39355469-19.77539063-47.4609375-5.93261719-98.87695313 15.8203125-134.47265625 23.73046875-39.55078125 49.43847656-79.1015625 75.14648437-116.67480469 13.84277344-19.77539063 27.68554688-41.52832031 41.52832031-61.30371093h1.97753907c7.91015625 13.84277344 17.79785156 27.68554688 25.70800781 41.52832031 13.84277344 19.77539063 25.70800781 41.52832031 39.55078125 59.32617187z m-134.47265625 181.93359375c5.93261719 21.75292969 23.73046875 39.55078125 43.50585937 47.4609375 5.93261719 1.97753906 13.84277344 1.97753906 21.75292969 3.95507813 49.43847656 0 90.96679688-49.43847656 69.21386719-102.83203125-9.88769531-25.70800781-29.66308594-43.50585938-61.30371094-49.43847657-47.4609375-5.93261719-88.98925781 53.39355469-73.16894531 100.85449219z m644.67773437-146.33789062l-106.78710937 71.19140625c-11.86523438 7.91015625-23.73046875 17.79785156-37.57324219 25.70800781-23.73046875 13.84277344-49.43847656 25.70800781-73.16894531 39.55078125-13.84277344 7.91015625-27.68554688 13.84277344-39.55078125 23.73046875 49.43847656 9.88769531 98.87695313 9.88769531 150.29296875 19.77539063 25.70800781 3.95507813 51.41601563 5.93261719 79.1015625 9.88769531-3.95507813 5.93261719-15.8203125 21.75292969-21.75292969 23.73046875l-19.77539063-1.97753907c-23.73046875-1.97753906-47.4609375-1.97753906-71.19140625-3.95507812-17.79785156-1.97753906-37.57324219 0-57.34863281-3.95507813-55.37109375-5.93261719-110.7421875-9.88769531-166.11328125-15.8203125 25.70800781-19.77539063 49.43847656-37.57324219 75.14648438-57.34863281 25.70800781-17.79785156 55.37109375-31.640625 81.07910156-49.43847656 33.61816406-25.70800781 65.25878906-51.41601563 98.87695312-77.12402344v-1.97753906c-79.1015625-5.93261719-158.203125-9.88769531-237.3046875-15.8203125l-47.4609375-1.97753906c-19.77539063-1.97753906-37.57324219-3.95507813-55.37109375-7.91015625l-25.70800781-1.97753906-77.12402344-130.51757813v-1.97753906c87.01171875 19.77539063 177.97851563 33.61816406 268.9453125 53.39355468 47.4609375 7.91015625 96.89941406 17.79785156 144.36035157 25.70800782 69.21386719 11.86523438 136.45019531 23.73046875 205.6640625 35.59570312-23.73046875 15.8203125-45.48339844 29.66308594-67.23632813 43.50585938z"  horiz-adv-x="1024" />

    
    <glyph glyph-name="yingjiliandong" unicode="&#59669;" d="M512 793c50.356 0 91.214-35.846 100.323-84.615C770.16 664.548 886 519.802 886 348c0-25.905-2.634-51.194-7.648-75.616l-0.01 0.005C904.318 253.46 921 222.231 921 186.311 921 127.332 876.027 81 818.778 81c-13.4 0-26.128 2.539-37.764 7.184C713.01 17.78 617.618-26 512-26c-105.618 0-201.01 43.78-269.02 114.183-11.63-4.644-24.358-7.183-37.758-7.183C147.973 81 103 127.332 103 186.311c0 35.92 16.682 67.15 42.658 86.078l-0.01-0.005C140.634 296.806 138 322.095 138 348c0 171.802 115.84 316.548 273.675 360.391C420.786 757.154 461.645 793 512 793z m94.736-145.544l-0.435-1.104c-15.333-37.912-51.364-63.974-94.301-63.974-43.35 0-79.663 26.567-94.738 65.075C290.148 607.279 198 488.4 198 348c0-19.255 1.733-38.106 5.052-56.404a84.35 84.35 0 0 0 2.17 0.026c57.249 0 102.222-46.332 102.222-105.31 0-22.47-6.527-43.104-17.774-60.04C346.513 69.272 425.137 34 512 34s165.487 35.27 222.334 92.271c-11.25 16.937-17.778 37.57-17.778 60.04 0 58.979 44.973 105.311 102.222 105.311 0.724 0 1.447-0.007 2.167-0.022A315.54 315.54 0 0 1 826 348c0 140.4-92.148 259.279-219.264 299.456zM411.88 491a2.868 2.868 0 0 0 2.86-2.86v-14.3H560.6c6.328 0 11.44-5.112 11.44-11.44v-40.397h91.52c6.328 0 11.44-5.113 11.44-11.44v-148.72c0-6.328-5.112-11.44-11.44-11.44H514.84a11.428 11.428 0 0 0-11.44 11.44V302.24h-88.66v-94.38a2.868 2.868 0 0 0-2.86-2.86h-20.02a2.868 2.868 0 0 0-2.86 2.86V488.14a2.868 2.868 0 0 0 2.86 2.86z"  horiz-adv-x="1024" />

    
    <glyph glyph-name="xianshifanwei" unicode="&#59670;" d="M755.97888184 238.65087890999996l-489.44091797-92.69714356L338.10015869 551.59643555l304.41741944 77.86560059zM686.27062989 710.66473388l151.28173827-522.0703125L184.22290039 65.12182616999996 279.88635253 607.21472168 686.27062989 710.66473388m5.19104003 8.89892579L273.58294678 613.14733887 175.32397461 55.852111820000005l671.86889648 127.18048096-155.73120117 536.53106689zM283.59423828 612.40576172m-37.44964599 0a37.44964599 37.44964599 0 1 1 74.89929198 0 37.44964599 37.44964599 0 1 1-74.89929198 0ZM283.59423828 571.24822998c-22.61810302 0-41.15753174 18.53942872-41.15753174 41.15753174s18.53942872 41.15753174 41.15753174 41.15753174 41.15753174-18.53942872 41.15753174-41.15753174-18.53942872-41.15753174-41.15753174-41.15753174z m0 74.899292c-18.53942872 0-33.74176026-15.20233154-33.74176026-33.74176026s15.20233154-33.74176026 33.74176026-33.74176026 33.74176026 15.20233154 33.74176026 33.74176026-15.20233154 33.74176026-33.74176026 33.74176026zM688.12457276 709.92315674m-37.44964601 0a37.44964599 37.44964599 0 1 1 74.899292 0 37.44964599 37.44964599 0 1 1-74.899292 0ZM688.12457276 668.765625c-22.61810302 0-41.15753174 18.53942872-41.15753174 41.15753174S665.50646973 751.0806884799999 688.12457276 751.0806884799999s41.15753174-18.53942872 41.15753173-41.15753174-18.53942872-41.15753174-41.15753173-41.15753174z m0 74.899292c-18.53942872 0-33.74176026-15.20233154-33.74176026-33.74176026s15.20233154-33.74176026 33.74176026-33.74176026 33.74176026 15.20233154 33.74176024 33.74176026-15.20233154 33.74176026-33.74176024 33.74176025zM841.63104248 185.62811279000005m-37.449646 0a37.44964599 37.44964599 0 1 1 74.89929199 0 37.44964599 37.44964599 0 1 1-74.89929199 0ZM841.63104248 144.47058104999996c-22.61810302 0-41.15753174 18.53942872-41.15753174 41.15753174s18.53942872 41.15753174 41.15753174 41.15753174 41.15753174-18.53942872 41.15753174-41.15753174-18.53942872-41.15753174-41.15753174-41.15753173z m0 74.899292c-18.53942872 0-33.74176026-15.20233154-33.74176026-33.74176026s15.20233154-33.74176026 33.74176026-33.74176025 33.74176026 15.20233154 33.74176025 33.74176025-15.20233154 33.74176026-33.74176025 33.74176026zM182.36895752 61.78472900999998m-37.44964599 0a37.44964599 37.44964599 0 1 1 74.89929199 0 37.44964599 37.44964599 0 1 1-74.89929199 0ZM182.36895752 20.62719727000001C159.75085449 20.62719727000001 141.21142578 39.16662597000004 141.21142578 61.78472900999998s18.53942872 41.15753174 41.15753174 41.15753174 41.15753174-18.53942872 41.15753173-41.15753174-18.53942872-41.15753174-41.15753173-41.15753174z m0 74.89929199c-18.53942872 0-33.74176026-15.20233154-33.74176025-33.74176025s15.20233154-33.74176026 33.74176025-33.74176026 33.74176026 15.20233154 33.74176026 33.74176026-15.20233154 33.74176026-33.74176026 33.74176024z"  horiz-adv-x="1024" />

    
    <glyph glyph-name="qingyu" unicode="&#59668;" d="M879.82226563 596.78320313c3.95507813 3.95507813 6.328125 9.4921875 6.32812499 15.82031249 0 5.53710938-2.37304688 11.86523438-6.328125 15.8203125L742.9765625 765.26953125c-3.95507813 3.95507813-9.4921875 6.328125-15.82031251 6.328125-5.53710938 0-11.86523438-2.37304688-15.82031249-6.328125-37.17773438-37.17773438-45.87890625-94.921875-20.56640625-140.80078126L432.8984375 365.80664062000005l-66.4453125 66.44531251c-23.73046875 23.73046875-62.49023438 23.73046875-85.4296875 0L190.84765625 342.07617187000005C116.4921875 267.72070311000004 116.4921875 148.27734375 190.84765625 74.71289062000005c71.19140625-71.19140625 185.88867188-73.56445313 260.24414064-6.32812499-2.37304688-4.74609375-3.1640625-9.4921875-3.16406252-14.23828125 0-31.640625 46.66992188-57.74414063 104.4140625-57.74414063 22.93945313 0 45.08789063 3.95507813 61.69921875 11.86523438 23.73046875-7.11914063 52.99804688-11.86523438 84.63867188-11.86523438 78.31054688 0 142.3828125 26.10351563 142.3828125 57.74414063s-64.07226563 57.74414063-142.3828125 57.74414062c-31.640625 0-60.90820313-3.95507813-84.63867188-11.86523438-17.40234375 7.11914063-38.75976563 11.86523438-61.69921873 11.86523438-28.4765625 0-54.58007813-6.328125-73.56445314-16.61132813l70.40039063 70.40039063c23.73046875 23.73046875 23.73046875 61.69921875-1e-8 85.4296875l-71.98242187 71.98242189L733.484375 579.38085938c45.87890625-29.26757813 107.578125-22.1484375 146.33789063 17.40234375zM733.484375 698.82421875l80.68359375-80.68359375c-22.93945313-6.328125-47.4609375 0-64.07226564 16.61132813-17.40234375 16.61132813-23.73046875 41.1328125-16.61132811 64.07226562z"  horiz-adv-x="1024" />

    
    <glyph glyph-name="guandaoshutong" unicode="&#59657;" d="M202.27609268 104.37868359000004l612.25179346 0c24.52996846 0 42.49348945 25.51749873 36.43159923 51.73652286-27.34146211 118.26711474-146.70223594 210.45461221-295.95334396 226.52941289L555.00614141 724.18355567c0 25.63262138-20.97198105 46.60370244-46.60460246 46.60370243-25.63262138 0-46.60370244-20.97108193-46.60370242-46.60370244l0-341.53893633c-149.25020801-16.07390156-268.61098183-108.26139902-295.95334395-226.52941289C159.78350323 129.89618230999997 177.74702334 104.37868359000004 202.27609268 104.37868359000004zM821.56741367 65.02136718999998L195.23746513 65.02136718999998c-18.11551729 0-32.93656875-14.82195059-32.93656875-32.93656875 0-18.11551729 14.82105146-32.93656875 32.93656875-32.93656875l626.32994854 0c18.11461817 0 32.93656875 14.82105146 32.93656875 32.93656875C854.50398242 50.19941659999995 839.68203184 65.02136718999998 821.56741367 65.02136718999998z"  horiz-adv-x="1024" />

    
    <glyph glyph-name="wancheng" unicode="&#59651;" d="M880.296875 341.6015625c-27.68554688 77.8359375-13.18359375 134.20898438-7.43554688 189.6328125-150.08203125-70.875-254.8125-286.875-287.77148437-361.23046875-13.18359375 20.19726563-42.45117188 82.265625-69.97851563 133.3125-22.88671875-12.33984375-141.69726563-86.2734375-141.69726562-86.2734375 70.40039063-25.04882813 161.05078125-106.89257813 220.4296875-179.5078125 60.75 103.88671875 214.3125 292.62304688 286.453125 304.06640625zM353.1640625 752.61328125h221.80078125v-73.66992188H353.1640625V752.56054688zM300.37695312 562.76953125h327.37500001v-43.40039063H300.37695312V562.76953125zM300.37695312 447.17578125h327.37500001v-43.40039063H300.37695312v43.40039063zM597.21875 277.0546875l25.83984375 43.40039063H543.53515625l29.63671875-43.40039063zM471.7109375 320.45507812000005H300.37695312v-43.40039062H406.00390625zM184.203125 107.51367187000005V689.49023438h93.8671875v41.08007812H143.17578125V67.59375h368.66601563l-40.13085938 39.91992188zM745.0859375 107.51367187000005h-63.38671875l-31.640625-39.91992187h135.52734375v161.89453125l-40.5-46.93359375zM745.0859375 478.86914063l40.5 40.49999999V730.5703125h-127.35351563v-41.1328125h86.85351563z"  horiz-adv-x="1024" />

    
    <glyph glyph-name="chongxi1" unicode="&#59658;" d="M874.99707031 151.01425781L606.90605469 411.73300781h0.18193359V774.88828125h-46.7015625v-0.71191406L418.12226562 668.90800781h-0.90966796v-256.64501953L148.58369141 151.02216797000005H148.1328125v-68.43867188l46.60664062 0.26894532h89.38476563c1.91425781 16.11298828 9.28652345 31.42705078 21.03310547 45.3251953H194.73945313v3.63076173L439.06835937 369.41367188000004h145.27792969l244.40800781-237.60527344v-3.63076173H718.14658203c11.74658203-13.89814453 19.11884766-29.21220703 21.03310547-45.3251953h89.38476563l46.60664062-0.26894532v68.43867188h-0.18193359zM347.94335937 118.26621093999995a4.44550781 4.44550781 0 0 1-5.91679687 0c-2.18320311-2.04082031-52.5234375-48.78193359-52.5234375-76.22226563 0-28.33417969 24.84580078-51.2578125 55.434375-51.2578125s55.434375 22.92363281 55.434375 51.2578125c0.08701172 27.44824219-50.2453125 74.27636719-52.42851562 76.22226563M512.15820313 116.13837891000003a4.44550781 4.44550781 0 0 1-5.92470704 0c-2.18320311-2.03291017-52.5234375-48.78193359-52.5234375-76.22226563 0-28.33417969 24.85371094-51.2578125 55.44228516-51.2578125 30.58066406 0 55.434375 22.92363281 55.434375 51.2578125 0.08701172 27.52734375-50.25322266 74.27636719-52.43642578 76.22226563M513.88261719 303.90966797a5.22070313 5.22070313 0 0 1-7.1033203 0c-2.63408203-2.39677734-63.43945313-58.95439453-63.43945314-92.07421875 0-34.171875 30.03486327-61.96816406 66.99902344-61.96816406 36.94833984 0 66.99111328 27.70927734 66.99111328 61.97607421 0 33.11191406-60.80537109 89.66953125-63.43945313 92.0663086M681.37226562 116.13837891000003a4.44550781 4.44550781 0 0 1-5.91679687 0c-2.18320311-2.03291017-52.5234375-48.78193359-52.5234375-76.22226563 0-28.33417969 24.85371094-51.2578125 55.434375-51.2578125 30.58857422 0 55.44228516 22.92363281 55.44228516 51.2578125 0.09492188 27.52734375-50.25322266 74.27636719-52.43642579 76.22226563"  horiz-adv-x="1024" />

    
    <glyph glyph-name="xietiaobangong" unicode="&#59873;" d="M511.1375 63.45937500000002c-36.35625 0-71.00625 6.496875-105.778125 19.85625l-24.4875-55.096875c46.63125-20.278125 97.78125-29.334375 148.21875-26.221875 50.446875 3.121875 100.5 18.43125 145.078125 44.34375l-30.50625 52.884375c-38.034375-23.41875-83.728125-35.765625-132.525-35.765625zM771.134375 382.03125l59.2125 12.253125c-13.903125 64.425-48.39375 124.771875-97.66875 170.859375l-40.771875-44.85c37.640625-36.665625 64.940625-84.290625 79.228125-138.2625z m119.409375-94.490625c-23.9625 23.9625-55.89375 37.153125-89.915625 37.153125s-65.9625-13.2-89.915625-37.153125-37.153125-55.89375-37.153125-89.915625 13.2-65.9625 37.153125-89.915625 55.89375-37.153125 89.915625-37.153125 65.9625 13.2 89.915625 37.153125c23.9625 23.9625 37.153125 55.89375 37.153125 89.915625s-13.190625 65.9625-37.153125 89.915625z m-89.915625-155.83125c-35.728125 0-65.915625 30.1875-65.915625 65.915625s30.1875 65.915625 65.915625 65.915625c17.4375 0 33.8625-6.6375 46.246875-18.69375 12.684375-12.346875 19.66875-29.11875 19.66875-47.221875 0-35.728125-30.1875-65.915625-65.915625-65.915625zM445.240625 501.253125h129.45c17.990625 0 35.203125 7.153125 48.478125 20.128125 13.153125 12.871875 21.009375 30 22.115625 48.24375V698.934375c0 18.946875-7.5375 36.76875-21.234375 50.165625-13.265625 12.975-31.246875 20.41875-49.359375 20.41875H445.240625c-18.946875 0-36.76875-7.5375-50.165625-21.234375-12.975-13.265625-20.41875-31.246875-20.41875-49.359375v-127.096875c0-18.946875 7.5375-36.76875 21.234375-50.165625 13.25625-12.965625 31.2375-20.409375 49.35-20.409375z m-9.43125 197.68125c0 4.940625 4.490625 9.43125 9.43125 9.43125h129.45c4.93125 0 9.43125-4.490625 9.43125-9.43125v-129.45c0-4.93125-4.5-9.43125-9.43125-9.43125H445.240625c-4.940625 0-9.43125 4.5-9.43125 9.43125V698.934375zM325.68125 517.93125l-40.696875 44.765625c-50.625-49.753125-83.559375-111.796875-95.55-179.990625l58.940625-10.1625c9.88125 55.490625 36.50625 105.58125 77.30625 145.3875zM198.48125 315.290625L90.584375 129.33749999999998l26.578125-47.025H327.21875l27.8625 47.146875-100.940625 185.8125h-55.659375z m-29.775-174.16875l57.853125 99.1875 52.35-99.1875H168.70625z"  horiz-adv-x="1024" />

    
    <glyph glyph-name="keshihua1" unicode="&#59872;" d="M263.515625 805.875H760.90625c91.546875 0 165.796875-74.25 165.796875-165.796875V278.53125c0-91.546875-74.25-165.796875-165.796875-165.796875H263.515625c-91.546875 0-165.796875 74.25-165.796875 165.796875V640.078125C97.71875 731.625 171.96875 805.875 263.515625 805.875z m0-60.328125c-58.21875 0-105.46875-47.25-105.46875-105.46875V278.53125c0-58.21875 47.25-105.46875 105.46875-105.46875H760.90625c58.21875 0 105.46875 47.25 105.46875 105.46875V640.078125c0 58.21875-47.25 105.46875-105.46875 105.46875H263.515625zM210.78125-37.875h602.859375c12.65625 0 22.78125 10.125 22.78125 22.78125 0 12.65625-10.125 22.359375-22.78125 22.78125H210.78125c-12.65625 0-22.78125-10.125-22.78125-22.78125 0-12.65625 10.125-22.78125 22.78125-22.78125zM294.734375 323.25l137.53125 142.59375c0.421875 0.421875 1.6875 0.421875 2.109375 0l100.40625-105.046875c17.71875-18.5625 47.25-19.40625 66.234375-1.265625 1.6875 1.265625 2.953125 2.953125 4.21875 4.640625l173.390625 216.84375c7.59375 9.703125 6.328125 24.046875-3.375 31.640625-9.703125 7.59375-24.046875 6.328125-31.640625-3.375L569.796875 392.4375c-0.421875-0.421875-1.6875-0.421875-2.109375 0L466.859375 497.0625c-0.421875 0.84375-0.421875 0.84375-1.265625 1.265625-18.5625 17.71875-48.09375 17.296875-66.234375-1.265625L262.25 354.46875c-8.859375-8.859375-8.4375-23.203125 0.421875-32.0625s23.625-8.4375 32.0625 0.84375z"  horiz-adv-x="1024" />

    
    <glyph glyph-name="yingjizhihui" unicode="&#59871;" d="M881.152 742.912h-742.4c-35.328 0-63.488-28.672-63.488-63.488v-512c0-35.328 28.672-63.488 63.488-63.488h182.272v-63.488h384.512v63.488h177.152c35.328 0 63.488 28.672 63.488 63.488v512c-1.024 35.328-29.696 63.488-65.024 63.488z m19.968-590.336H121.344V697.856H901.12v-545.28zM188.416 563.2h53.248v-291.328H188.416V563.2z m95.744-90.624h53.248v-200.192H284.16V472.576z m95.232 61.44h53.248v-260.608H379.392V534.0160000000001zM475.136 399.36h53.248v-127.488H475.136V399.36z m152.576 160.768h193.536c6.656 0 11.264-5.632 11.264-11.264 0-2.048 0-3.584-1.024-5.632l-34.304-62.464c-1.024-1.024-1.024-3.584 0-5.632l34.304-63.488c3.584-5.632 1.024-12.288-4.608-15.872-2.048-1.024-4.608-1.024-5.632-1.024h-193.536v-103.424c0-8.192-8.192-14.848-15.872-13.824-8.192 0-13.824 6.656-13.824 13.824V560.1279999999999h29.696z"  horiz-adv-x="1025" />

    
    <glyph glyph-name="wulianwang" unicode="&#59647;" d="M874.4609375 537.19335938c-19.77539063 46.84570313-48.1640625 88.9453125-84.28710938 125.06835937-36.12304688 36.12304688-78.22265625 64.51171875-125.06835937 84.28710938C616.58984375 767.11523438 565.17382813 777.48632813 512 777.48632813S407.32226562 767.11523438 358.80664062 746.54882813c-46.84570313-19.77539063-88.9453125-48.1640625-125.06835937-84.28710938-36.12304688-36.12304688-64.51171875-78.22265625-84.28710938-125.06835938C128.88476562 488.67773438 118.51367187 437.0859375 118.51367187 384s10.37109375-104.58984375 30.93750001-153.10546875c19.77539063-46.84570313 48.1640625-88.9453125 84.28710937-125.06835938 36.12304688-36.12304688 78.22265625-64.51171875 125.06835938-84.28710937 48.515625-20.56640625 100.10742188-30.9375 153.19335937-30.9375 53.0859375 0 104.58984375 10.37109375 153.19335938 30.9375 46.84570313 19.77539063 88.9453125 48.1640625 125.06835937 84.28710938 36.12304688 36.12304688 64.51171875 78.22265625 84.28710938 125.06835937 20.47851563 48.515625 30.84960938 99.93164063 30.84960937 153.10546875s-10.37109375 104.67773438-30.9375 153.19335938zM267.6640625 408.08203125c4.74609375 11.33789063 10.01953125 22.32421875 15.73242188 33.13476563 1.0546875-0.08789063 2.109375-0.08789063 3.16406249-0.08789063 30.84960938 0 55.81054688 24.9609375 55.81054688 55.81054688 0 8.4375-1.84570313 16.34765625-5.18554688 23.46679687 7.3828125 8.70117188 15.20507813 17.05078125 23.29101563 25.22460938 8.70117188 8.70117188 17.66601563 16.96289063 26.98242188 24.78515625 5.18554688-19.95117188 11.86523438-39.55078125 19.95117187-58.62304688 21.53320313-50.9765625 52.3828125-96.6796875 91.66992188-135.96679688 33.83789063-33.83789063 72.33398438-61.34765625 114.96093749-82.08984374-1.58203125-1.66992188-3.25195313-3.42773438-4.83398437-5.09765625-19.42382813-20.12695313-40.25390625-38.58398438-62.2265625-55.37109375-9.140625 6.50390625-20.30273438 10.28320313-32.34375 10.28320312-20.7421875 0-38.93554688-11.33789063-48.515625-28.21289062-49.65820313 12.04101563-96.94335938 32.78320313-139.83398438 61.78710937-29.44335938 19.86328125-56.07421875 43.06640625-79.45312499 68.99414063 5.36132813 21.09375 12.3046875 41.74804688 20.83007812 61.96289062z m373.18359375-150.02929688c5.53710938 5.71289063 10.8984375 11.6015625 16.25976563 17.49023438 35.68359375-12.83203125 72.68554688-20.7421875 110.56640624-23.73046875-57.56835938-29.8828125-121.46484375-46.58203125-187.29492187-48.42773438 21.26953125 16.78710938 41.484375 34.98046875 60.46875 54.66796875z m220.60546875 126.03515626c0-24.87304688-2.54882813-49.39453125-7.64648438-73.30078125-5.80078125-5.09765625-11.68945313-9.93164063-17.66601562-14.67773438a378.45703125 378.45703125 0 0 0-34.54101563-1.58203125c-39.28710938 0-77.6953125 5.80078125-114.60937499 17.31445313 20.91796875 27.50976563 39.375 56.77734375 55.28320312 87.5390625 0.703125 0 1.49414063-0.08789063 2.19726563-0.08789063 30.84960938 0 55.81054688 24.9609375 55.81054687 55.81054688 0 16.43554688-7.03125 31.11328125-18.28125 41.30859375 8.4375 27.421875 14.94140625 55.45898438 19.3359375 83.84765625 12.83203125-18.89648438 23.81835938-39.0234375 32.78320313-60.29296875 18.10546875-42.890625 27.33398438-88.68164063 27.33398437-135.87890626zM762.57617188 627.72070313c-3.1640625-39.90234375-10.63476563-79.01367188-22.23632813-116.89453126-28.91601563-2.109375-51.6796875-26.19140625-51.6796875-55.63476562 0-14.15039063 5.2734375-26.98242188 13.88671875-36.82617188-16.5234375-31.90429688-36.12304688-62.05078125-58.53515625-90.08789062-42.45117188 19.07226563-80.68359375 45.52734375-113.81835938 78.66210937-35.24414063 35.24414063-62.9296875 76.2890625-82.26562499 121.9921875-9.66796875 22.8515625-17.05078125 46.40625-22.06054688 70.48828125 22.67578125 15.20507813 46.7578125 28.21289063 72.15820313 38.93554688 53.34960938 22.58789063 110.0390625 34.01367188 168.48632812 34.01367187 15.55664063 0 31.2890625-0.87890625 46.7578125-2.54882812 16.25976563-11.51367188 31.55273438-24.34570313 45.87890625-38.58398438 1.14257813-1.14257813 2.28515625-2.37304688 3.42773438-3.515625z m-136.75781251 86.92382812c-50.00976563-4.21875-98.61328125-16.171875-144.93164062-35.77148438-21.4453125-9.05273438-42.09960938-19.59960938-61.875-31.640625-0.79101563 10.28320313-1.23046875 20.65429688-1.23046875 31.11328125 0 14.4140625 0.79101563 28.828125 2.37304688 43.06640625 29.70703125 8.0859375 60.46875 12.12890625 91.84570312 12.12890625 39.19921875 0 77.34375-6.328125 113.81835938-18.89648437z m-360.96679687-83.40820313c31.72851563 31.72851563 68.64257813 56.77734375 109.77539063 74.26757813-0.61523438-9.05273438-0.87890625-18.10546875-0.87890626-27.15820313 0-19.95117188 1.31835938-39.7265625 4.04296875-59.23828124-16.96289063-12.91992188-33.22265625-27.0703125-48.515625-42.36328125-8.70117188-8.70117188-16.96289063-17.66601563-24.9609375-26.89453125-5.625 1.84570313-11.6015625 2.90039063-17.75390625 2.90039062-30.84960938 0-55.81054688-24.9609375-55.81054687-55.81054688 0-13.7109375 5.00976563-26.3671875 13.27148438-36.03515625-6.06445313-11.6015625-11.68945313-23.46679688-16.87500001-35.68359375-5.18554688-12.12890625-9.75585938-24.52148438-13.88671874-37.00195312-16.34765625 23.37890625-30.32226563 48.33984375-41.83593751 74.79492188 4.48242188 19.51171875 10.63476563 38.58398438 18.54492188 57.12890624 17.578125 41.57226563 42.80273438 79.01367188 74.8828125 111.09375001zM162.546875 385.58203125c11.07421875-17.84179688 23.203125-34.98046875 36.5625-51.24023438-5.625-28.125-8.7890625-56.86523438-9.31640625-85.95703124-18.10546875 42.97851563-27.24609375 88.59375-27.24609375 135.61523437v1.58203125z m77.60742188-221.22070313c-4.30664063 24.609375-6.50390625 49.921875-6.50390626 75.23437501 0 18.10546875 1.0546875 36.03515625 3.25195313 53.70117187 19.95117188-19.24804688 41.57226563-36.82617188 64.86328125-52.55859375 45.703125-30.9375 95.88867188-53.34960938 148.53515625-66.70898438-54.31640625-26.015625-111.97265625-42.80273438-171.73828125-50.00976562-4.65820313 4.21875-9.22851563 8.52539063-13.7109375 13.0078125-8.7890625 8.70117188-16.96289063 17.84179688-24.69726563 27.33398438z m518.99414062-27.42187499c-32.08007813-32.08007813-69.43359375-57.3046875-111.09375-74.88281251-43.06640625-18.19335938-88.85742188-27.421875-136.0546875-27.421875-47.19726563 0-92.98828125 9.22851563-136.0546875 27.421875-16.875 7.11914063-33.046875 15.55664063-48.515625 25.13671875 50.9765625 10.01953125 100.1953125 26.63085938 147.12890625 49.65820313l8.96484375 4.48242187c8.87695313-5.9765625 19.59960938-9.40429688 31.11328125-9.40429687 20.47851563 0 38.3203125 10.98632813 47.98828125 27.421875 1.93359375 0 3.77929688-0.08789063 5.71289063-0.08789063 93.42773438 0 183.69140625 27.15820313 260.68359374 77.60742188-17.2265625-37.08984375-40.69335938-70.75195313-69.87304687-99.93164063z"  horiz-adv-x="1024" />

    
    <glyph glyph-name="GIS" unicode="&#59648;" d="M820.390625 485.928125h-71.71875v-43.4953125h71.71875a5.315625 5.315625 0 0 0 2.0671875-0.3796875v-332.775l-97.3265625 169.4671875a54.84375 54.84375 0 0 1-86.0203125 6.91875L512 134.88593749999995a7.425 7.425 0 0 0-5.9484375-2.19375 7.5515625 7.5515625 0 0 0-5.5265625 3.1640625l-93.5296875 97.5796875a54.84375 54.84375 0 0 1-86.7375 0.5484375l-118.715625-152.3390625V441.96875a5.315625 5.315625 0 0 0 2.0671875 0.3796875h69.7359375V485.928125H203.609375c-25.3125 0-45.5625-18.6890625-45.5625-41.6390625v-387.365625c0-22.95 20.41875-41.6390625 45.5625-41.6390625h616.78125c25.3125 0 45.5625 18.6890625 45.5625 41.6390625V444.2890625c0 22.9921875-20.41875 41.6390625-45.5625 41.6390625zM357.509375 204.57968749999998a7.2984375 7.2984375 0 0 0 6.1171875 2.86875 7.6359375 7.6359375 0 0 0 5.90625-3.1640625l93.4875-97.621875a54.84375 54.84375 0 0 1 39.065625-21.09375 55.51875 55.51875 0 0 1 44.7609375 17.4234375l127.153125 150.778125a8.4375 8.4375 0 0 0 6.1171875 2.1515625 7.340625 7.340625 0 0 0 4.6828125-1.9828125l111.9234375-194.990625h-552.65625z m462.88125-145.8h-0.928125l2.9953125 1.7296875v-1.35a5.315625 5.315625 0 0 0-2.0671875-0.3796875zM609.621875 558.0265625a100.1109375 100.1109375 0 1 1-100.1109375-100.1109375 100.1953125 100.1953125 0 0 1 100.1109375 100.1109375z m-152.71875 0A52.65 52.65 0 1 0 509.5109375 505.25a52.65 52.65 0 0 0-52.6078125 52.7765625zM509.5109375 219.8515625a61.7625 61.7625 0 0 1 45.140625 19.321875c7.2140625 7.5515625 175.8375 185.9203125 175.8375 312.4828125A220.978125 220.978125 0 1 1 288.40625 551.65625c0-126.5625 168.75-304.93125 175.7953125-312.4828125a61.7625 61.7625 0 0 1 45.309375-19.321875z m0 505.321875A173.728125 173.728125 0 0 0 683.028125 551.65625c0-80.15625-97.284375-210.9375-162.7171875-279.7453125a15.271875 15.271875 0 0 0-21.5578125 0C433.3203125 340.71875 336.0359375 471.5 336.0359375 551.65625a173.6859375 173.6859375 0 0 0 173.475 173.5171875z"  horiz-adv-x="1024" />

    
    <glyph glyph-name="wangzhan" unicode="&#59649;" d="M903.5776 621.02186667c16.93013333 58.9824 23.48373333 173.12426667-82.46613333 187.86986666-84.10453333 10.37653333-185.68533333-44.2368-238.66026667-80.2816-16.93013333 2.18453333-36.0448 4.36906667-54.61333333 4.36906667-137.07946667 2.18453333-225.55306667-44.2368-301.4656-143.63306667-27.30666667-36.0448-52.4288-97.21173333-61.16693334-166.57066666 38.22933333 65.536 156.19413333 185.68533333 280.71253334 234.2912 0 0-187.86986667-134.89493333-280.71253334-324.94933334v-2.18453333c-4.36906667-8.192-8.192-16.93013333-12.56106666-27.30666667-90.65813333-225.55306667-16.93013333-322.7648 52.97493333-339.69493333 63.35146667-16.93013333 151.82506667 14.7456 223.36853333 90.65813333 120.14933333-27.30666667 240.29866667 4.36906667 284.53546667 27.30666667 84.10453333 46.42133333 143.63306667 128.88746667 156.19413333 212.992H637.61066667S627.23413333 220.15999999999997 502.71573333 220.15999999999997c-114.14186667 0-120.14933333 132.7104-120.14933333 132.7104h491.52s8.192 143.63306667-61.16693333 238.66026667c-39.86773333 52.4288-92.84266667 99.39626667-166.57066667 124.5184 23.48373333 16.93013333 61.16693333 42.05226667 95.0272 50.7904 63.35146667 16.93013333 105.40373333 6.5536 132.7104-39.86773334 36.0448-63.35146667-21.2992-208.62293333-21.2992-208.62293333s33.86026667 41.50613333 50.7904 102.67306667zM395.12746667 62.327466670000035c-97.21173333-80.2816-176.9472-69.90506667-208.62293334-23.48373334-27.30666667 42.05226667-31.67573333 115.78026667 0 219.5456 14.7456-39.86773333 38.22933333-78.09706667 71.54346667-111.95733333 42.05226667-42.05226667 88.4736-69.35893333 137.07946667-84.10453333z m-4.36906667 411.2384s4.36906667 95.0272 107.58826667 103.2192c88.4736 8.192 134.89493333-31.67573333 149.64053333-107.58826667l-257.2288 4.36906667z"  horiz-adv-x="1024" />

    
    <glyph glyph-name="neiwangziwang-" unicode="&#59650;" d="M960.512 388.608l-224.256 388.608H287.232L62.976 388.608 287.232 0H660.48c94.72-47.104 210.432-8.192 257.536 86.528 31.744 64 25.6 140.8-16.896 198.656l59.392 103.424z m-99.328-154.112v-140.288c0-5.632-0.512-11.776-2.048-17.408-1.536-5.12-4.608-9.216-8.704-12.288-4.608-3.584-9.728-6.144-15.36-8.192-12.288-3.072-24.576-5.632-36.864-7.168-1.024 6.144-2.048 11.776-3.072 17.92-1.024 5.632-2.56 11.264-4.608 16.384l-3.584 10.24c7.168-1.536 14.336-2.56 21.504-2.048 4.608 0 8.704 1.536 11.776 4.608 2.048 3.072 3.072 6.656 2.56 10.752v120.32h-58.88c-0.512-4.096-0.512-8.192-1.024-12.8-0.512-4.096-1.024-8.704-2.048-13.824-1.024-5.12-2.048-10.24-3.584-14.848 5.12 2.56 9.728 5.12 14.336 8.704l6.144 5.12c7.68-11.776 14.336-22.016 19.968-30.72s10.752-18.944 16.384-30.208c-11.776-5.12-23.04-10.752-33.792-17.92-4.608 11.264-9.216 20.48-13.824 28.672-4.096 7.68-8.704 15.36-13.824 23.04-4.096-7.68-8.704-15.36-14.336-22.528-5.632-7.168-11.264-13.824-17.92-20.48-8.704-7.68-18.432-14.336-28.672-19.968-3.584 8.704-8.192 16.896-12.8 25.088l-8.704 12.288c9.216 3.584 17.92 8.704 25.6 15.36s13.824 14.848 18.432 24.064c4.608 7.68 7.168 16.384 8.704 25.088l1.536 16.384h-56.32v-146.432l1.024-30.208h-40.96l1.024 30.72v148.48l-1.024 35.84 33.28-1.024h64V281.6l-1.024 23.552h40.448l-1.024-23.552v-15.872h67.072l31.744 1.024-1.536-32.256z m0 82.432c-33.792 31.232-78.336 48.128-124.416 48.128-9.728 0-19.456-1.024-29.184-2.56-9.728 7.68-21.504 12.288-33.792 12.288-12.8 0-25.6-4.608-35.328-13.312L507.392 436.736c5.632 16.896 6.144 34.816 1.536 51.712l91.648 46.08c21.504-20.48 55.808-19.968 76.288 1.536s19.968 55.808-1.536 76.288-55.808 19.968-76.288-1.536c-11.264-11.776-16.896-28.16-14.848-44.032l-91.648-46.08c-30.72 39.424-87.552 46.08-126.464 15.36-39.424-30.72-46.08-87.552-15.36-126.464 10.24-12.8 23.552-22.528 38.912-28.672L376.32 302.08000000000004c-29.184-5.12-49.152-33.28-44.032-62.464 5.12-29.184 33.28-49.152 62.464-44.032 29.184 5.12 49.152 33.28 44.032 62.464-3.072 15.872-12.8 30.208-27.136 37.888l13.312 78.848c24.576 1.024 48.128 11.776 64.512 30.72l131.584-75.264c-0.512-2.048-0.512-4.608-0.512-6.656-79.36-64.512-91.136-181.248-26.624-260.608 3.584-4.608 7.68-8.704 11.776-12.8H316.416L120.832 388.608 316.416 727.04h391.168l195.584-338.432-41.984-71.68z"  horiz-adv-x="1024" />

    
    <glyph glyph-name="anquanguanli" unicode="&#59652;" d="M837.54687473 683.53125c-0.70312473 0-80.85937473 1.40625027-163.82812446 34.45312473-85.07812473 33.04687527-139.92187473 71.71875-140.62500027 72.42187554L511.29687527 805.875l-21.09375-15.46874973c-0.70312473-0.70312473-55.54687473-38.67187473-140.62500027-72.42187554-82.96874973-33.04687527-163.12499973-34.45312473-163.82812527-34.45312473H149.89062473v-355.07812473C149.89062473 150.56249973 385.4375-37.875 512-37.875S874.10937527 150.56249973 874.10937527 328.45312527V683.53125h-36.56250054z m-23.90624973-356.484375c0-142.03124973-213.74999973-304.45312473-301.640625-304.45312473S210.359375 185.01562527 210.359375 327.046875V623.06249973c37.26562527 4.21875 97.73437473 13.35937473 161.71875027 38.67187554 48.515625 18.984375 95.62499973 42.1875 139.92187473 69.609375 26.71875027-16.17187527 75.9375-43.59375027 139.92187473-69.609375 63.28125-25.3125 123.04687473-34.45312473 161.01562554-38.67187554v-296.01562473zM484.578125 237.75000027L362.93749973 354.46875c-11.95312527 11.95312527-12.65625 30.93750027-0.70312473 42.89062473 11.95312527 11.95312527 30.93750027 12.65625 42.89062473 0.70312554l78.75000054-75.9375L677.23437473 511.26562473c11.95312527 11.95312527 31.640625 11.24999973 42.89062554-0.70312473 11.95312527-11.95312527 11.24999973-31.640625-0.70312554-42.89062473L484.578125 237.75000027z"  horiz-adv-x="1024" />

    
    <glyph glyph-name="gongchengguanli" unicode="&#59870;" d="M782.1459609 357.51510154000005c-5.29697984-5.29697984-10.59395896-15.8909388-10.59395895-26.48489775v-233.06710422c0-15.8909388-10.59395896-26.48489846-26.48489846-26.48489774H225.96309958c-15.8909388 0-26.48489846 10.59395896-26.48489775 26.48489775V617.06710348c0 15.8909388 10.59395896 26.48489846 26.48489775 26.48489847H459.03020379c5.29697984 0 15.8909388 5.29697984 15.89093879 5.29697984 5.29697984 5.29697984 5.29697984 10.59395896 5.29697984 15.89093879 0 15.8909388-10.59395896 26.48489846-26.48489846 26.48489775H199.47820182c-26.48489846 0-52.96979621-21.18791862-52.9697962-52.96979622V66.18122200000005c0-26.48489846 21.18791862-52.96979621 52.96979621-52.96979622h572.07380012c26.48489846 0 52.96979621 21.18791862 52.96979623 52.96979621V331.03020379c0 10.59395896-5.29697984 21.18791862-10.59395896 21.18791863-10.59395896 10.59395896-21.18791862 10.59395896-31.78187831 5.29697911z m-450.24326817-15.8909388c-15.8909388-15.8909388-26.48489846-42.37583726-26.48489846-68.86073501s10.59395896-52.96979621 26.48489846-68.860735c15.8909388-15.8909388 42.37583726-26.48489846 68.860735-26.48489846s52.96979621 10.59395896 68.86073502 26.48489846L649.72147074 384c58.26677605-15.8909388 127.12751107 0 174.80032744 47.67281638 52.96979621 52.96979621 68.860735 137.72147074 37.07885742 206.58220573l-15.8909388 37.07885742-31.78187758-26.48489774-26.48489847-26.48489847-15.8909388-15.89093879c-10.59395896-10.59395896-26.48489846-10.59395896-37.07885742 0-5.29697984 5.29697984-10.59395896 10.59395896-10.59395895 21.18791862 0 5.29697984 5.29697984 15.8909388 10.59395895 21.18791864 21.18791862 15.8909388 42.37583726 42.37583726 42.37583726 42.37583653l21.18791864 26.48489848-31.78187832 15.89093879c-68.860735 31.78187758-153.61240953 15.8909388-206.58220573-37.07885742C512 648.84898179 496.1090612 579.9882460599999 512 521.72147074L331.90269273 341.62416274z m248.95804228 296.63085938c26.48489846 37.07885742 63.56375589 52.96979621 105.93959315 52.96979621h21.18791791c-5.29697984-5.29697984-10.59395896-10.59395896-10.59395896-15.8909388-15.8909388-15.8909388-26.48489846-37.07885742-26.48489846-58.26677604 0-21.18791862 10.59395896-42.37583726 26.48489846-58.26677533 31.78187758-31.78187758 79.45469468-31.78187758 111.23657227 0l15.8909388 10.59395895c5.29697984-42.37583726-5.29697984-84.75167379-37.07885743-111.23657227-37.07885742-26.48489846-90.04865363-37.07885742-137.72147001-21.18791862l-15.89093952 5.29697983-201.28522589-201.2852259c-10.59395896-10.59395896-31.78187758-15.8909388-47.67281639-10.59395968-15.8909388 10.59395896-26.48489846 26.48489846-26.48489847 42.37583726 0 10.59395896 5.29697984 21.18791862 10.59395968 31.78187759l201.2852259 201.28522591-5.29697983 15.89093951c-15.8909388 37.07885742-5.29697984 84.75167379 15.89093879 116.53355137zM395.46644789 304.54530532c-5.29697984-5.29697984-10.59395896-10.59395896-10.59395896-21.18791863 0-15.8909388 10.59395896-26.48489846 26.48489775-26.48489775 5.29697984 0 15.8909388 5.29697984 15.89093952 5.29697984 5.29697984 5.29697984 5.29697984 10.59395896 5.29697912 15.8909388 0 10.59395896-5.29697984 21.18791862-10.59395896 21.18791863-5.29697984 10.59395896-15.8909388 10.59395896-26.48489847 5.29697911z"  horiz-adv-x="1024" />

    
    <glyph glyph-name="keshihua" unicode="&#59655;" d="M263.515625 805.875H760.90625001c91.546875 0 165.796875-74.25 165.79687499-165.796875V278.53124999c0-91.546875-74.25-165.796875-165.79687501-165.79687499H263.515625c-91.546875 0-165.796875 74.25-165.79687501 165.79687501V640.078125C97.71874999 731.625 171.96874999 805.875 263.515625 805.875z m0-60.328125c-58.21875001 0-105.46875001-47.25-105.46875-105.46875V278.53124999c0-58.21875001 47.25-105.46875001 105.46875-105.46874999H760.90625001c58.21875001 0 105.46875001 47.25 105.46874999 105.46875001V640.078125c0 58.21875001-47.25 105.46875001-105.46875001 105.46875H263.515625zM210.78124999-37.875h602.85937501c12.65625001 0 22.78125001 10.125 22.78125 22.78125001 0 12.65625001-10.125 22.359375-22.78125 22.78124999H210.78124999c-12.65625001 0-22.78125001-10.125-22.78124999-22.78125001 0-12.65625001 10.125-22.78125001 22.78125001-22.78124999zM294.734375 323.25l137.53125 142.59375001c0.421875 0.421875 1.6875 0.421875 2.109375-2e-8l100.40625001-105.04687499c17.71875001-18.5625 47.25-19.40625001 66.23437499-1.26562501 1.6875 1.265625 2.953125 2.953125 4.21875 4.64062501l173.390625 216.84375c7.59375001 9.703125 6.328125 24.046875-3.375 31.64062499-9.703125 7.59375001-24.046875 6.328125-31.640625-3.375L569.796875 392.4375c-0.421875-0.421875-1.6875-0.421875-2.109375 0L466.859375 497.0625c-0.421875 0.84375001-0.421875 0.84375001-1.26562499 1.265625-18.5625 17.71875001-48.09375001 17.296875-66.23437501-1.265625L262.25 354.46874999c-8.859375-8.859375-8.4375-23.203125 0.421875-32.06249998s23.625-8.4375 32.0625 0.84374999z"  horiz-adv-x="1024" />

    
    <glyph glyph-name="tuxiangshibie" unicode="&#59656;" d="M880.64 201.216c15.36 0 28.16-12.8 28.16-28.16v-122.368c0-30.72-25.088-56.32-56.32-56.32h-157.696c-15.36 0-28.16 12.8-28.16 28.16s12.8 28.16 28.16 28.16h157.696v122.368c0 15.36 12.288 28.16 28.16 28.16z m-734.208 0c15.36 0 28.16-12.8 28.16-28.16v-122.368h158.72c15.36 0 28.16-12.8 28.16-28.16s-12.8-28.16-28.16-28.16h-158.72c-30.72 0-56.32 25.088-56.32 56.32v122.368c0 15.36 12.8 28.16 28.16 28.16z m576.512 402.432c45.568 0 82.432-35.84 84.48-81.408v-284.16c0-45.568-35.84-82.432-81.408-84.48H329.216c-45.568 0-82.432 35.84-84.48 81.408V519.168c0 45.568 35.84 82.432 81.408 84.48h396.8z m0-56.32H329.216c-14.848 0-27.136-11.264-28.16-26.112v-283.136c0-14.848 11.264-27.136 26.112-28.16h54.272l184.832 223.232 184.832-92.16V519.168c0 14.848-11.264 27.136-26.112 28.16h-2.048z m-145.92-166.912L436.224 209.91999999999996h286.72c14.848 0 27.136 11.264 28.16 26.112v57.856l-174.08 86.528zM413.696 512.512c42.496 0 77.312-34.816 77.312-77.312s-34.816-77.312-77.312-77.312S336.384 392.192 336.384 435.2s34.304 77.312 77.312 77.312z m0-42.496c-19.456 0-35.328-15.872-35.328-35.328 0-19.456 15.872-35.328 35.328-35.328s35.328 15.872 35.328 35.328c-0.512 19.968-15.872 35.328-35.328 35.328zM334.848 777.728c15.36 0 28.16-12.8 28.16-28.16s-12.8-28.16-28.16-28.16h-158.72V599.04c0-15.36-12.8-28.16-28.16-28.16S119.808 583.6800000000001 119.808 599.04V721.408c0 30.72 25.088 56.32 56.32 56.32h158.72z m517.632 0c30.72 0 56.32-25.088 56.32-56.32V599.04c0-15.36-12.8-28.16-28.16-28.16s-28.16 12.8-28.16 28.16V721.408h-157.696c-15.36 0-28.16 12.8-28.16 28.16s12.8 28.16 28.16 28.16h157.696z"  horiz-adv-x="1024" />

    
    <glyph glyph-name="zhihuiguanwang" unicode="&#59867;" d="M568.90625 535.21875c42 0 199.6875-35.4375 217.03125 130.875 0 0-48.65625-47.4375-126.375-4.875s-93.1875 67.6875-180.5625 67.6875c-27.84375 0-39.28125-21.46875-39.28125-21.46875l72.9375-227.15625c0-0.09375 14.25 54.9375 56.25 54.9375z m227.0625-212.625H621.6875c-15.5625 0-28.125-12.5625-28.125-28.125s12.5625-28.125 28.125-28.125h174.28125c22.03125 0 39.9375-17.90625 39.9375-39.9375s-17.90625-39.9375-39.9375-39.9375H369.6875c-53.0625 0-96.1875-43.125-96.1875-96.1875s43.125-96.1875 96.1875-96.1875h297.65625c15.5625 0 28.125 12.5625 28.125 28.125s-12.5625 28.125-28.125 28.125H369.6875c-22.03125 0-39.9375 17.90625-39.9375 39.9375s17.90625 39.9375 39.9375 39.9375h426.28125c53.0625 0 96.1875 43.125 96.1875 96.1875 0 52.96875-43.21875 96.1875-96.1875 96.1875z m-417-28.125c0 15.5625-12.5625 28.125-28.125 28.125H152c-15.5625 0-28.125-12.5625-28.125-28.125s12.5625-28.125 28.125-28.125h198.84375c15.5625 0 28.125 12.5625 28.125 28.125zM470.09375 287.625c4.21875-13.03125 16.21875-21.28125 29.25-21.28125 3.1875 0 6.28125 0.5625 9.5625 1.5 16.125 5.25 24.9375 22.59375 19.6875 38.71875L383.84375 750.84375c-5.25 16.125-22.59375 24.9375-38.71875 19.6875-16.125-5.25-24.9375-22.59375-19.6875-38.71875l144.65625-444.1875z"  horiz-adv-x="1024" />

    
    <glyph glyph-name="nongcunwushui" unicode="&#59868;" d="M129.16398976 147.91448542c-11.46195622 5.92859799-15.80959517 19.76199433-10.27623693 30.82871003l2.37143936 3.55715941c9.88099718 11.46195622 26.48107187 14.62387587 39.5239879 6.71907753 19.76199433-13.43815582 42.29066703-22.52867347 66.00505978-25.69059158 10.27623694-0.39523975 20.1572341 2.37143934 28.85251121 7.90479759 1.18571929 0.39523975 5.13811847 2.76667913 6.71907753 3.55715865 23.71439274 13.04291605 50.59070437 19.76199433 77.86225653 18.57627426 18.18103451 0.39523975 36.36206903-4.34763894 52.56690397-13.4381558 1.97619958-0.79047952 7.90479757-4.34763894 9.4857574-5.13811846 16.20483492-8.69527711 34.38586944-12.64767629 52.56690398-11.46195624 9.88099718 0 19.36675381 2.37143934 27.66679114 7.90479759 1.18571929 0.39523975 5.13811847 2.76667913 6.32383853 3.55715865 23.31915298 13.43815582 49.80022485 19.76199433 76.28129673 18.57627426 22.92391322-0.39523975 45.45258591-6.32383776 65.60981998-17.39055499l0.79047954-0.39523975c12.64767629-7.11431806 26.87631163-11.46195622 41.5001875-12.25243576 11.46195622-0.39523975 22.52867347 2.76667913 31.61919033 9.48575665 0.39523975 0.39523975 6.7190783 4.74287871 9.09051687 5.92859799 18.97151405 12.25243652 40.7097072 20.1572341 63.23838067 22.52867346 41.50018751 7.50955782 83.79085453-0.79047952 119.36244403-23.31915298 10.6714767-6.7190783 13.83339558-20.94771364 7.11431729-31.61919033-0.79047952-1.18571929-1.58095983-2.37143934-2.37143936-3.16191889-10.27623694-11.06671646-27.27155138-12.64767629-39.91922767-4.34763894-22.52867347 13.83339558-49.80022485 18.57627428-75.49081641 13.43815581-13.83339558-1.58095983-27.27155138-6.32383776-38.73350839-13.83339558-1.58095983-1.18571929-7.90479757-5.13811847-9.09051764-5.92859798-18.97151405-13.04291605-41.89542727-19.76199433-64.81933972-19.36675381-23.31915298 0.79047952-46.2430662 6.7190783-66.79554007 17.78579398l-0.79047954 0.39523976c-12.25243652 6.7190783-26.08583211 11.06671646-40.31446743 12.25243654-16.20483492 0.79047952-32.40966986-3.16191888-46.63830598-11.46195623-0.79047952-0.39523975-5.13811847-2.76667913-5.92859798-3.55715941-17.39055499-10.27623694-37.54778832-15.80959517-57.70502242-15.41435464-28.45727145-1.18571929-56.51930237 5.13811847-81.81465496 18.57627428l-9.48575741 5.13811846c-7.11431806 4.34763894-15.01911564 6.7190783-23.31915298 6.32383776-16.99531446 0.79047952-33.99062967-3.16191888-48.61450479-11.46195622-1.18571929-0.39523975-5.13811847-2.76667913-6.32383852-3.55715942-17.78579475-10.27623694-37.94302807-15.41435541-58.49550196-15.01911486-34.78110922 3.16191888-68.37649913 15.01911564-97.62425011 34.78110921z m0-124.50056251c-11.46195622 5.92859799-15.80959517 19.76199433-10.27623693 30.8287108l2.37143936 3.55715864c9.88099718 11.46195622 26.48107187 14.62387587 39.5239879 6.7190783 19.76199433-13.43815582 42.29066703-22.52867347 66.00505978-25.69059234 10.27623694-0.39523975 20.1572341 2.37143934 28.85251121 7.90479758 1.18571929 0.39523975 5.13811847 2.76667913 6.71907753 3.55715943 23.71439274 13.04291605 50.59070437 19.76199433 77.86225653 18.57627427 18.18103451 0.39523975 36.36206903-4.34763894 52.56690397-13.43815582 1.97619958-0.79047952 7.90479757-4.34763894 9.4857574-5.13811845 16.20483492-8.69527711 34.38586944-12.64767629 52.56690398-11.46195701 9.88099718-0.39523975 19.36675381 2.37143934 27.66679114 7.90479758 1.18571929 0.39523975 5.13811847 2.76667913 6.32383853 3.55715943 23.31915298 13.43815582 49.80022485 19.76199433 76.28129673 18.57627427 22.92391322-0.39523975 45.45258591-6.32383776 65.60981998-17.39055499l0.79047954-0.39523976c12.64767629-7.11431806 26.87631163-11.46195622 41.5001875-12.25243653 11.46195622-0.39523975 22.52867347 2.76667913 31.61919033 9.48575741 0.39523975 0.39523975 6.7190783 4.74287871 9.09051687 5.92859799 18.97151405 12.25243652 40.7097072 20.1572341 63.23838067 22.52867346 41.50018751 7.50955782 83.79085453-0.79047952 119.36244403-23.31915299 10.6714767-6.7190783 13.83339558-20.94771364 7.11431729-31.61919032-0.79047952-1.18571929-1.58095983-2.37143934-2.37143936-3.16191888-10.27623694-11.06671646-27.27155138-12.64767629-39.91922767-4.34763894-22.52867347 13.83339558-49.80022485 18.57627428-75.49081641 13.43815581-13.83339558-1.58095983-27.27155138-6.32383776-38.73350839-13.83339557-1.58095983-1.18571929-7.90479757-5.13811847-9.09051764-5.928598-18.97151405-13.04291605-41.89542727-20.1572341-64.81933972-19.36675458-23.31915298 0.39523975-46.2430662 6.7190783-66.79554007 17.78579476l-0.79047954 0.39523976c-12.25243652 6.7190783-26.08583211 11.06671646-40.31446743 12.25243652-16.20483492 0.79047952-32.40966986-3.16191888-46.63830598-11.46195699-0.79047952-0.39523975-5.13811847-2.76667913-5.92859798-3.55715864-17.39055499-10.27623694-37.54778832-15.80959517-57.70502242-15.41435541-28.45727145-1.18571929-56.51930237 5.13811847-81.81465496 18.57627428l-9.48575741 5.13811847c-7.11431806 4.34763894-15.01911564 6.7190783-23.31915298 6.32383853-16.99531446 0.79047952-33.99062967-3.16191888-48.61450479-11.461957-1.18571929-0.39523975-5.13811847-2.76667913-6.32383852-3.55715864-17.78579475-10.27623694-37.94302807-15.41435541-58.49550196-15.01911564-34.78110922 3.16191888-68.37649913 15.01911564-97.62425011 34.78110921zM271.05510647 611.92610343v-332.79197799H369.46983613V356.60114144c-0.39523975 44.66210637 35.57158951 80.62893565 80.23369589 81.02417542h132.4053593c44.66210637 0 80.62893565-36.36206903 80.2336959-80.62893565v-77.467016h92.88137139V611.92610343L510.57047332 726.94090853 263.94078844 611.92610343h7.11431805z m147.81971474-382.98744259H243.38831457c-11.85719676 0-21.73819315 9.88099718-21.73819317 21.73819315V562.1258786000001H138.25450663C126.00207088 562.1258786000001 116.51631348 572.0068757700001 116.51631348 584.25931228c0 8.30003735 4.74287871 15.80959517 12.25243651 19.36675381L501.08471591 777.53161291c5.92859799 2.76667913 12.25243652 2.76667913 18.18103452 1e-8l372.31596668-173.90554683c11.06671646-5.13811847 15.80959517-18.18103451 10.67147669-28.85251121-3.55715865-7.50955782-11.46195622-12.64767629-19.76199433-12.64767628h-77.07177624v-311.05378484c0-11.85719676-9.4857574-21.73819315-21.73819316-21.73819317h-169.95314842V356.60114144c0 16.99531446-13.83339558 31.22395057-31.22395057 31.22395058H450.09877177c-16.99531446 0-31.22395057-13.83339558-31.22395056-31.22395057v-127.66248062z"  horiz-adv-x="1024" />

    
    <glyph glyph-name="tongyiyewu" unicode="&#59869;" d="M198.25595703 527.06748047v-400.22402344c0-30.91728516 25.72646484-56.5875 57.21503906-56.5875h513.05800782a56.75976563 56.75976563 0 0 1 57.21503906 56.5875V527.06835938c0 30.91816406-25.72646484 56.5875-57.21503906 56.58749999H255.47099609a56.75976563 56.75976563 0 0 1-57.21503906-56.5875z m114.65947266 113.63203125v28.80791016c0 46.83339844 38.33349609 84.99550781 84.99550781 84.99550781h229.2046875c47.06191406 0 85.05351562-37.87734375 85.05351563-84.99550781v-28.80791016h56.35986328c63.09052734 0 114.25957031-51.33955078 114.25957031-113.63203125v-400.22402344c0-62.74863281-50.99765625-113.63203125-114.25957031-113.63203125H255.47099609c-63.09052734 0-114.25957031 51.33955078-114.25957031 113.63203125V527.06835938c0 62.74863281 50.99765625 113.63203125 114.25957031 113.63203124h57.38730469z m57.04365234 0h285.22265625v28.80791016a27.83759766 27.83759766 0 0 1-28.06611328 27.95185546H397.9109375a28.23662109 28.23662109 0 0 1-27.95185547-27.95185546v-28.80791016zM369.38867187 384c0 47.23242188 38.44863281 85.56679687 85.56679688 85.56679687h114.0890625c47.23242188 0 85.56679687-37.99160156 85.56679687-85.56679687 0-47.23242188-38.44863281-85.56679687-85.56679687-85.56679687H454.95546875c-47.23242188 0-85.56679687 37.99160156-85.56679687 85.56679687z m57.04453126 0c0-15.97236328 12.60703125-28.52226562 28.52226562-28.52226562h114.0890625c15.68671875 0 28.52226562 12.83466797 28.52226562 28.52226562 0 15.97236328-12.60703125 28.52226562-28.52226562 28.52226562H454.95546875c-15.68671875 0-28.52226562-12.83466797-28.52226562-28.52226562zM141.21142578 412.52226562h285.22265625v-57.04453125H141.21054687v57.04453125z m456.35449219 1e-8h285.22265625v-57.04453125h-285.22265625v57.04453125z"  horiz-adv-x="1024" />

    
    <glyph glyph-name="hedaoduanmian" unicode="&#59646;" d="M439.59158325 652.56793213h59.29650879L635.27154541 95.18041991999996H439.59158325V652.56793213zM404.01483154 557.69302368H143.1090393v53.33917236l260.87777711 0.02801514 0.02801513-53.3671875zM143.10821533 528.04559326h260.90579224v-47.43786621H143.10821533v47.43786621zM143.10821533 450.95947266h260.90579224v-47.43704224H143.10821533v47.43621826zM143.10821533 373.87417602000005h260.90579224v-47.43704224H143.10821533V373.87335205zM143.10821533 296.78723144h260.90579224v-47.43621826H143.10821533v47.43621826zM902.10583496 213.77261352000005v-41.50854492c-27.7951355 1.58203125-44.41223145 21.90618896-77.08447265 11.85946656-12.9611206-3.98474122-33.59262085-19.7341919-59.29733277-11.85946656-12.10748291 3.70706177-34.57397461 11.85946656-53.3671875 11.85946656s-39.53265381-9.87945557-59.29568481-11.85946656c-1.97836304 15.80877685-3.95343018 31.62991333-5.93014527 47.43786622 12.37280273-2.1258545 25.90493774-7.3828125 41.50854492-5.9293213s41.21026612 12.14785766 60.16662598 8.48693848 30.1088562-15.68682862 51.65332031-9.33068848 53.59130859 16.92608643 71.99890137 12.70321656 19.76715088-9.87945557 29.64743043-11.85946656zM143.10821533 219.70193482000002h260.90579224v-47.43786622H143.10821533v47.43786622zM902.10583496 136.68649291999998v-41.50772094c-23.71563721 3.94931031-37.65975953 20.55157471-71.15597534 11.85946654-19.90475464-7.04745484-50.45443726-11.89407349-71.15515137-7.64401245s-26.39685059 10.19421387-47.43869018 7.64401245-27.67318726-9.87945557-41.50772095-11.85946654l-11.86029053 41.50772094c11.86029052 0 25.34133911-2.09042359 35.57839966 0s43.15155029 15.44458008 59.29733276 11.85946656 37.18762208-13.94989013 53.3671875-11.85946656 37.65563965 20.36453247 59.29568482 11.85946656 23.72140503-9.87945557 35.57922364-11.85946656zM143.10821533 142.61663818h260.90579224v-47.43704224H143.10821533v47.43621827z"  horiz-adv-x="1024" />

    
    <glyph glyph-name="yuliangji" unicode="&#59645;" d="M265.0625 508.5375c30.2625 0 74.98125 11.98125 97.70625 19.85625 40.44375-8.1 87.91875-28.8 138.54375-26.15625 84.375 4.5 97.425 14.45625 137.5875 22.3875 23.79375-12.825 54.50625-24.24375 88.03125-24.24375 75.54375 0 118.575 39.20625 118.575 87.525 0 48.375-43.03125 87.525-118.575 87.525-2.7 0-5.2875-0.16875-8.04375-0.225-20.08125 58.33125-101.3625 102.0375-198.5625 102.0375-105.6375 0-192.54375-51.6375-202.5-117.61875-19.85625-6.1875-36.84375-13.275-50.175-21.20625-68.79375-3.375-93.0375-31.10625-93.0375-64.74375 0-36 15.01875-65.1375 90.50625-65.1375zM341.675 506.68125c-4.8375 0-43.36875-65.64375-43.36875-89.71875 0-24.075 19.4625-43.59375 43.3125-43.59375a43.3125 43.3125 0 0 1 43.3125 43.48125c0 24.13125-38.475 89.83125-43.3125 89.83125zM619.4375 412.29375c0-24.075 19.4625-43.59375 43.3125-43.59375 23.9625 0 43.425 19.51875 43.425 43.59375 0 24.075-38.53125 89.71875-43.36875 89.71875-4.89375 0.1125-43.3125-65.64375-43.3125-89.71875z m-170.775-53.15625c0-29.7 23.9625-53.8875 53.4375-53.8875a53.6625 53.6625 0 0 1 53.55 53.8875c0 29.8125-47.5875 110.925-53.49375 110.925-5.90625 0-53.49375-81.1125-53.49375-110.925zM802.30625 420.225l-37.51875-73.6875a18.95625 18.95625 0 0 1-2.025-8.60625v-103.66875c-14.85-6.35625-44.04375-15.46875-90.73125-17.325-90.675-3.7125-78.75 11.7-151.3125 11.7-48.375 0-78.6375-11.7-145.125-8.83125-43.65 1.96875-90 13.6125-121.05 22.95V337.93125a18.95625 18.95625 0 0 1-2.025 8.60625l-37.51875 73.6875c-8.325 16.25625-32.7375 10.96875-33.075-7.48125v-329.85c0-50.90625 39.7125-92.25 88.65-92.25h476.2125c48.9375 0 88.65 41.34375 88.65 92.25V412.6875c-0.39375 18.39375-24.75 23.7375-33.13125 7.48125zM527.75 109.61249999999995a8.2125 8.2125 0 0 0-8.04375-8.38125h-2.3625a8.2125 8.2125 0 0 0-7.9875 8.38125v34.5375c0 11.1375-3.15 15.13125-9.73125 15.13125-3.31875 0-6.8625-1.85625-10.85625-5.45625a8.60625 8.60625 0 0 1-2.7-6.24375v-37.96875a8.2125 8.2125 0 0 0-7.9875-8.38125h-2.3625a8.2125 8.2125 0 0 0-8.04375 8.38125v34.5375c0 11.1375-3.15 15.13125-9.73125 15.13125-3.31875 0-6.8625-1.85625-10.8-5.45625a8.60625 8.60625 0 0 1-2.7-6.24375v-37.96875a8.2125 8.2125 0 0 0-8.04375-8.38125h-2.25a8.2125 8.2125 0 0 0-8.04375 8.38125v55.9125c0 4.5 3.54375 8.325 7.9875 8.325 3.99375 0 7.48125-3.09375 7.9875-7.2l0.3375-2.475h0.50625c5.90625 6.35625 12.31875 11.53125 21.43125 11.53125 6.69375 0 11.53125-2.1375 14.9625-5.79375a7.875 7.875 0 0 1 10.8-0.5625 24.24375 24.24375 0 0 0 15.75 6.35625c14.85 0 21.7125-10.9125 21.7125-29.19375v-36.9h0.16875z m36.84375-10.18125h-0.5625c-12.76875 0-17.26875 8.6625-17.26875 22.10625v74.75625c0 4.5 3.54375 8.325 8.04375 8.325h2.25c4.44375 0 8.04375-3.7125 8.04375-8.38125v-75.54375c0-4.33125 2.025-5.7375 3.7125-5.7375 0.7875 0 1.4625 1.06875 2.53125 0.28125 1.18125-0.9 1.0125-6.075 1.0125-6.075 0.675-5.00625-2.8125-9.675-7.7625-9.73125z"  horiz-adv-x="1024" />

    
    <glyph glyph-name="bengzhan2" unicode="&#59644;" d="M217.25 314.70000000000005c-3.15 9.45-3.15 18.9-6.3 28.35a247.05 247.05 0 0 0 6.3 107.1 310.95 310.95 0 0 0 59.85 126 311.85 311.85 0 0 0 160.65 100.8 364.05 364.05 0 0 0 82.35 9.45h302.4a90 90 0 0 0 81.9-47.25 180 180 0 0 0 12.6-45v-49.5a93.15 93.15 0 0 0-50.4-81.9 100.8 100.8 0 0 0-45-9.45h-22.05c3.15-9.45 3.15-22.05 6.3-31.5a362.25 362.25 0 0 0-6.3-100.8 310.95 310.95 0 0 0-59.85-126 299.7 299.7 0 0 0-160.65-100.8l-53.55-9.45a214.2 214.2 0 0 0-45-3.15H204.65a90 90 0 0 0-66.15 25.2 81 81 0 0 0-25.2 40.95 184.5 184.5 0 0 0-6.3 40.95v45a90 90 0 0 0 22.05 50.4 106.65 106.65 0 0 0 45 28.35 104.85 104.85 0 0 0 45 3.15zM768.95 384a256.5 256.5 0 0 1-261.9 258.3 256.05 256.05 0 0 1-258.3-261.45A256.05 256.05 0 0 1 512 122.54999999999995 258.3 258.3 0 0 1 768.95 384zM462.05 391.2A49.95 49.95 0 1 1 512 441.15a50.4 50.4 0 0 1-49.95-49.95z m120.6 163.8a7.65 7.65 0 0 1-9.45-3.6L536.75 474a6.75 6.75 0 0 1 0-5.85 5.4 5.4 0 0 1 4.05-3.6A78.3 78.3 0 0 0 589.85 384a5.85 5.85 0 0 1 0-4.5h93.15c3.6 0 6.75 0 6.75 3.6a173.7 173.7 0 0 1-107.1 171.9z m-149.4-182.25a12.15 12.15 0 0 1 0 5.4 77.85 77.85 0 0 0 45 84.15 7.2 7.2 0 0 1 3.6 4.5 5.85 5.85 0 0 1 0 5.4l-40.5 75.6a6.3 6.3 0 0 1-9 3.15 177.3 177.3 0 0 1-98.1-182.7 6.75 6.75 0 0 1 6.75-6.3l85.5 8.1a10.8 10.8 0 0 1 4.95 2.7z m135-45a7.2 7.2 0 0 1-4.95 3.15 5.85 5.85 0 0 1-5.4 0 80.55 80.55 0 0 0-95.4 0 6.3 6.3 0 0 1-5.4 0 6.3 6.3 0 0 1-4.95-3.15l-45.9-72a7.65 7.65 0 0 1 0-9.9 180 180 0 0 1 207.9 0 7.65 7.65 0 0 1 0 9.9l-47.7 71.1z m0 0"  horiz-adv-x="1024" />

    
    <glyph glyph-name="app1" unicode="&#59866;" d="M1058.12273905 206.05056080999998l-31.62496665 103.01714881H873.32909068l-31.03494864-103.0171488H744.94116637L899.17188058 617.88314886h105.61322816l151.28062402-411.83258804h-97.9429937z m372.65539056 184.20363036c-31.74297025-26.31480434-71.27417857-29.73690894-118.82963217-29.73690894H1285.39768591v-154.46672142h-102.89914521V620.00721377h154.34871781c103.01714882 0 149.39256631-39.88521913 149.39256633-129.80396758 0-43.66133455-23.83672858-73.6342507-55.46169523-99.94905501z m213.94053927-29.73690894h-50.50554375v-154.46672142h-102.8991452V620.00721377h154.34871782C1748.67984655 620.00721377 1806.97362834 580.1219946599999 1806.97362834 490.2032462c0-43.66133455-11.8003607-73.6342507-43.42532732-99.94905503-31.74297025-26.31480434-71.27417857-29.73690894-118.82963214-29.73690893zM1305.45829908 566.43357625h-20.06061317v-154.46672142h19.23458791c52.74761227 0 79.18042022 31.62496665 79.18042025 78.00038415 0 45.31338505-26.19680073 76.46633726-78.35439499 76.46633727z m288.75482605-2e-8v-154.4667214h43.18932014c52.74761227 0 79.06241662 31.62496665 79.06241659 78.00038415 0 45.31338505-25.96079353 76.46633726-78.23639136 76.46633727h-44.01534537zM944.01325119 549.20504965L873.56509786 377.62780523000004h140.89630665L944.01325119 549.20504965z"  horiz-adv-x="2560" />

    
    <glyph glyph-name="duanxin" unicode="&#59863;" d="M646.28333333 792.7125c-105.75 0-203.625-29.7-281.925-79.425-78.975-50.175-137.7-121.1625-165.15-202.8375-11.025-32.7375-16.875-67.6125-16.875-103.5 0-134.1 82.125-251.775 207-321.075 11.25-6.1875 16.9875-19.575 12.15-31.5a344.3625 344.3625 0 0 0-35.4375-65.1375c-4.5-6.3 1.125-15.075 8.775-13.05a500.2875 500.2875 0 0 1 119.25 48.4875 61.5375 61.5375 0 0 0 43.3125 7.0875c34.875-6.8625 71.4375-10.575 109.125-10.575 256.275 0 463.8375 172.8 463.8375 385.65 0 213.075-207.7875 385.875-464.0625 385.875z"  horiz-adv-x="1280" />

    
    <glyph glyph-name="dingding" unicode="&#59864;" d="M866.66666708 498.02666625c-2.13333375-6.61333313-4.48000031-15.46666687-11.09333344-28.8-30.93333375-68.58666656-112.85333344-201.38666625-112.85333343-201.38666625l-24.32000063-42.02666625h115.09333406l-221.33333343-296.53333406 50.88 201.38666718h-90.66666657l30.93333282 132.79999969c-26.66666625-6.72-55.36000031-15.57333375-90.66666657-26.66666625 0 0-48.74666625-28.8-139.51999969 55.46666625 0 0-61.97333344 55.25333344-26.56000031 68.47999969 15.46666687 6.72 73.06666687 13.33333313 119.46666656 19.94666719 61.97333344 8.85333375 99.62666625 13.33333313 99.62666719 13.33333312s-192.53333344-2.23999969-236.80000031 4.37333344C284.58666646 405.01333312 227.09333333 482.56000031 213.76000021 548.90666625c0 0-19.94666625 37.65333375 39.89333343 19.94666719 59.73333375-17.70666656 307.62666656-68.58666656 307.62666656-68.58666657S238.07999989 599.78666625 218.23999958 624.21333375C196.05333364 648.53333344 156.26666708 756.90666656 160.63999958 823.36000031c0 0 2.13333375 17.70666656 19.94666719 11.09333344 0 0 238.93333312-110.71999969 400.53333281-170.45333344 163.84000031-57.6 305.49333375-88.53333375 285.5466675-165.97333406z"  horiz-adv-x="1024" />

    
    <glyph glyph-name="youjian" unicode="&#59865;" d="M1001.96048506 689.5203706c25.56187081 0 37.68084591-26.17291155 18.33122224-40.2268486L708.66092928 397.850257a32.48699961 32.48699961 0 0 0-36.66244446 0L360.3677068 649.39536173C341.01808313 663.24561874 353.23889796 689.5203706 378.69892904 689.5203706h623.26155602zM654.38014305 353.14244256999996a58.15071073 58.15071073 0 0 1 71.69544736 0L1052.57502627 615.38076086C1070.19336744 629.53653764 1097.6902008 618.1304442 1097.6902008 596.74401825v-468.66824849C1097.6902008 100.68077614000003 1073.35041148 78.47962940000002 1043.40941515 78.47962940000002H337.24999836C307.41084237 78.47962940000002 282.96921271 100.68077614000003 282.96921271 128.07576975999996V596.74401825C282.96921271 618.23228393 310.46604607 629.53653764 328.08438725 615.38076086l326.39759612-262.23831829z"  horiz-adv-x="1365" />

    
    <glyph glyph-name="zhuzhuangtu1" unicode="&#59643;" d="M942.92347259 68.61042725000004H105.58577778V670.55009185c0 9.96996741-10.10225303 18.09036325-20.10134756 18.09036326-9.99909452 0-20.10134755-8.12039585-20.10134755-18.11949036v-621.97062164l0.00121363-0.01820444-0.00121363-0.02305897c0-9.99788089 8.12039585-20.10134755 18.09036325-20.10134755h859.47672653c9.96996741 0 18.09036325 10.10225303 18.09036325 20.10134755 0.00242725 10.00030815-8.11796859 20.10134755-18.11706311 20.10134755zM316.44421689 470.15314015h-97.22144237c-17.83307378 0-32.342016-14.50772859-32.342016-32.342016V174.81879703000004c0-17.82943289 14.50894222-32.33837511 32.342016-32.33837511h97.22144237c17.83307378 0 32.342016 14.51136948 32.342016 32.342016V437.81112415c0 17.83428741-14.50894222 32.342016-32.342016 32.342016z m540.06518519 109.2072486h-97.22144238c-17.83307378 0-32.342016-14.50772859-32.342016-32.342016V174.81879703000004c0-17.82943289 14.50894222-32.33837511 32.342016-32.33837511h97.22144238c17.83186015 0 32.34080237 14.51136948 32.34080237 32.342016V547.01715911c0.00121363 17.83550103-14.50772859 32.34322963-32.34080237 32.34322964z m-270.63940741 163.85941807h-97.22144237c-17.83307378 0-32.342016-14.50772859-32.342016-32.342016V174.81879703000004c0-17.82943289 14.50894222-32.33837511 32.342016-32.33837511h97.22144237c17.83186015 0 32.34080237 14.51136948 32.34080236 32.342016V710.87779082c0.00121363 17.83428741-14.50772859 32.342016-32.34080236 32.342016z"  horiz-adv-x="1024" />

    
    <glyph glyph-name="gengduo" unicode="&#59640;" d="M512 611.57376a91.04042667 91.04042667 0 1 1 0 182.02624 91.04042667 91.04042667 0 0 1 0-182.02624zM512 384m-91.04042667 0a91.04042667 91.04042667 0 1 1 182.08085334 0 91.04042667 91.04042667 0 1 1-182.08085334 0ZM512-25.600000000000023a91.04042667 91.04042667 0 1 1 0 182.08085333 91.04042667 91.04042667 0 0 1 0-182.08085333z"  horiz-adv-x="1024" />

    
    <glyph glyph-name="shouqi" unicode="&#59641;" d="M512 565.5201564500001l382.03118933-382.03118934a36.40888889 36.40888889 0 1 1 51.49673245 51.49673244l-403.70176 403.70176a42.23431111 42.23431111 0 0 1-59.71057778 0l-403.64350578-403.70176a36.40888889 36.40888889 0 0 1 51.49673245-51.49673244L512 565.5201564500001z"  horiz-adv-x="1024" />

    
    <glyph glyph-name="shengyin1" unicode="&#59642;" d="M705.87733333 506.33386667c-16.384 17.47626667-44.2368 18.56853333-62.2592 2.18453333-17.47626667-16.384-18.56853333-44.2368-2.18453333-62.2592l2.18453333-2.18453333c51.33653333-51.33653333 51.33653333-134.89493333 0-186.23146667-16.384-17.47626667-15.83786667-45.32906667 2.18453334-62.2592 16.93013333-15.83786667 43.14453333-15.83786667 60.07466666 0 85.74293333 85.74293333 85.74293333 224.4608 0 310.74986667zM513.09226667 763.56266667l-225.00693334-168.7552h-140.35626666c-38.22933333 0.54613333-69.90506667-30.58346667-70.4512-69.35893334V242.55146666999997c0.54613333-38.77546667 31.67573333-69.35893333 70.4512-69.35893334h140.35626666l225.00693334-168.7552c31.1296-23.48373333 56.25173333-10.37653333 56.25173333 28.39893334V735.16373333c0 38.77546667-25.12213333 51.88266667-56.25173333 28.39893334zM829.8496 630.30613333c-18.0224 16.384-45.8752 15.29173333-62.2592-2.73066666-15.29173333-16.93013333-15.29173333-42.5984 0-59.52853334 120.14933333-120.14933333 120.14933333-314.5728 0-434.72213333-16.384-18.0224-15.29173333-45.8752 2.73066667-62.2592 16.93013333-15.29173333 42.5984-15.29173333 59.52853333 0 154.55573333 154.55573333 154.55573333 404.6848 0 559.24053333z"  horiz-adv-x="1024" />

    
    <glyph glyph-name="shuiwen" unicode="&#59638;" d="M701.40390206 213.43725586000005a90.51876068 90.51876068 0 0 0-49.31488038 14.32170868l-27.80914306 18.21498871a28.64341736 28.64341736 0 0 1-31.23893739 0l-27.80914305-18.21498872a92.00191498 92.00191498 0 0 0-98.58341218 1e-8l-27.80914307 18.21498871a28.82881164 28.82881164 0 0 1-31.23893737 0l-27.80914307-18.21498872a92.00191498 92.00191498 0 0 0-98.58341217 1e-8l-27.80914307 18.21498871a28.64341736 28.64341736 0 0 1-31.23893737 0l-36.10553742-23.86951447a30.7291031 30.7291031 0 0 0-39.16454315 3.6151886 22.15461731 22.15461731 0 0 0 4.12502289 34.11254883l1.4831543 0.97332001 36.10553741 23.86951446a92.00191498 92.00191498 0 0 0 98.58341217 0l27.80914307-18.26133727a28.68976594 28.68976594 0 0 1 31.23893738 0l27.80914306 18.26133727a92.00191498 92.00191498 0 0 0 98.58341217 0l27.80914307-18.26133727a28.82881164 28.82881164 0 0 1 31.23893737 0l27.80914307 18.26133727a92.00191498 92.00191498 0 0 0 98.58341218 0l27.80914306-18.26133727a28.68976594 28.68976594 0 0 1 31.23893738 0l27.80914306 18.26133727a92.00191498 92.00191498 0 0 0 98.58341218 0l27.80914305-18.26133727a22.34001159 22.34001159 0 0 0 6.62784578-33.78810883 30.54370881 30.54370881 0 0 0-38.79375458-5.88626862l-1.4831543 0.97332001-27.80914307 18.26133728a28.64341736 28.64341736 0 0 1-31.23893738 0l-27.80914306-18.26133728a92.69714356 92.69714356 0 0 0-49.5929718-14.27536011zM701.40390206 76.10643768a90.51876068 90.51876068 0 0 0-49.31488038 14.32170868l-27.80914306 18.26133728a28.7361145 28.7361145 0 0 1-31.23893739 0l-27.80914305-18.26133728a92.00191498 92.00191498 0 0 0-98.58341218 0l-27.80914307 18.26133728a28.82881164 28.82881164 0 0 1-31.23893737 0l-27.80914307-18.26133728a92.00191498 92.00191498 0 0 0-98.58341217 0l-27.80914307 18.26133728a28.68976594 28.68976594 0 0 1-31.23893737 0l-36.10553742-23.86951446a30.7291031 30.7291031 0 0 0-39.16454315 3.6151886 22.15461731 22.15461731 0 0 0 4.12502289 34.11254883l1.4831543 0.97332 36.10553741 23.86951447a92.04826355 92.04826355 0 0 0 98.58341217 0l27.80914307-18.26133728a28.68976594 28.68976594 0 0 1 31.23893738 0l27.80914306 18.26133728a92.04826355 92.04826355 0 0 0 98.58341217 0l27.80914307-18.26133728a28.87516022 28.87516022 0 0 1 31.23893737 0l27.80914307 18.26133728a92.04826355 92.04826355 0 0 0 98.58341218 0l27.80914306-18.26133728a28.68976594 28.68976594 0 0 1 31.23893738 0l27.80914306 18.26133728a92.04826355 92.04826355 0 0 0 98.58341218 0l27.80914305-18.26133728a22.34001159 22.34001159 0 0 0 6.62784578-33.78810883 30.54370881 30.54370881 0 0 0-38.79375458-5.88626862l-1.4831543 0.97332001-27.80914307 18.26133728a28.64341736 28.64341736 0 0 1-31.23893738 0l-27.80914306-18.26133728a92.69714356 92.69714356 0 0 0-49.5929718-14.27536011zM325.60968208 585.47724152a58.63094331 58.63094331 0 0 0-43.15052032 18.02959442 59.14077758 59.14077758 0 0 0-17.93689728 43.01147461 59.37252045 59.37252045 0 0 0 18.075943 43.98479462A58.90903474 58.90903474 0 0 0 325.60968208 708.44000244a59.88235474 59.88235474 0 0 0 43.42861176-17.93689728 59.00173188 59.00173188 0 0 0 18.26133729-43.98479461 58.72364045 58.72364045 0 0 0-18.12229157-43.10417175 59.74330902 59.74330902 0 0 0-43.56765748-17.93689728z m0.55618287 98.11992645a34.94682312 34.94682312 0 0 1-25.6307602-10.66017151 34.94682312 34.94682312 0 0 1-10.66017151-25.63076019 34.94682312 34.94682312 0 0 1 10.66017151-25.6307602 34.94682312 34.94682312 0 0 1 25.6307602-10.79921722 34.25159454 34.25159454 0 0 1 25.25997162 10.66017152 35.31761169 35.31761169 0 0 1 10.47477722 25.63076018 35.31761169 35.31761169 0 0 1-10.47477722 25.6307602 34.25159454 34.25159454 0 0 1-25.25997162 10.79921722z m332.73639678-299.27272797a229.65717316 229.65717316 0 0 0-91.72382355-17.0562744 159.90257263 159.90257263 0 0 0-119.25487517 45.37525176 161.1076355 161.1076355 0 0 0-44.81906892 118.00346374 173.2509613 173.2509613 0 0 0 49.31488037 128.89537812A172.46303558 172.46303558 0 0 0 579.22906685 708.44000244a250.2822876 250.2822876 0 0 0 79.62684631-12.18967438v-42.0381546a177.3759842 177.3759842 0 0 1-77.77290344 16.63913727 130.8883667 130.8883667 0 0 1-96.59042359-37.07885742 134.41085815 134.41085815 0 0 1-37.07885742-99.5103836 127.41222383 127.41222383 0 0 1 34.90047456-94.78282929 125.1411438 125.1411438 0 0 1 91.81652069-34.43698883 179.41532136 179.41532136 0 0 1 84.77153777 19.00291443z"  horiz-adv-x="1024" />

    
    <glyph glyph-name="morenwenjian" unicode="&#59635;" d="M703.488 833.5360000000001H157.696c-18.432-1.024-32.768-15.36-33.792-33.792v-832.512c1.024-18.432 15.36-32.768 33.792-33.792h708.608c18.432 1.024 32.768 15.36 33.792 33.792V636.928L703.488 833.5360000000001zM419.84 274.432c11.264-11.264 10.24-28.672-1.024-39.936-11.264-10.24-27.648-10.24-38.912 0L280.576 332.79999999999995c-11.264 11.264-11.264 28.672 0 39.936l99.328 99.328c11.264 11.264 28.672 11.264 39.936 1.024 11.264-12.288 11.264-29.696 0-40.96L340.992 353.28l78.848-78.848z m152.576 235.52l-64.512-301.056c-3.072-18.432-14.336-25.6-32.768-21.504-18.432 3.072-25.6 14.336-21.504 32.768l64.512 301.056c3.072 18.432 14.336 25.6 32.768 21.504 18.432-3.072 25.6-14.336 21.504-32.768z m173.056-175.104l-2.048-2.048-99.328-99.328c-11.264-11.264-28.672-12.288-39.936-1.024s-12.288 28.672-1.024 39.936l1.024 1.024 78.848 78.848-78.848 78.848c-11.264 11.264-12.288 28.672-1.024 39.936 11.264 11.264 28.672 12.288 39.936 1.024l1.024-1.024 99.328-99.328c9.216-9.216 10.24-25.6 2.048-36.864zM708.608 833.5360000000001v-157.696c1.024-18.432 15.36-32.768 33.792-33.792h157.696L708.608 833.5360000000001z"  horiz-adv-x="1024" />

    
    <glyph glyph-name="PDF-01" unicode="&#59797;" d="M157.625 834a36.315 36.315 0 0 1-33.75-33.75v-832.5a36.315 36.315 0 0 1 33.75-33.75h708.75a36.315 36.315 0 0 1 33.75 33.75V637.125L703.25 834zM708.875 834v-157.5a36.315 36.315 0 0 1 33.75-33.75h157.5zM310.49 453.075c54.585 0 82.215-23.13 82.215-69.48s-27.63-70.11-82.845-70.11H253.7V226.5h-37.125V453.075z m-56.79-108h54c16.47 0 28.53 3.15 36 9s11.385 15.885 11.385 29.52-4.095 23.175-11.7 28.89-19.71 9-36 9h-54zM507.23 453.075c36.81 0 64.44-10.125 83.475-30.465 18-19.035 27.27-46.62 27.27-82.8s-9-63.45-27.27-82.8c-19.035-20.34-46.665-30.465-83.475-30.465h-82.8V453.075z m-45.675-194.805h38.7c28.26 0 48.87 6.66 61.875 19.665s19.035 33.975 19.035 61.875-6.165 49.5-19.035 62.19-33.615 19.35-61.875 19.35h-38.7zM807.425 453.075v-31.5h-117.405v-63h110.745v-31.5h-110.745V226.5h-37.125V453.075z"  horiz-adv-x="1024" />

    
    <glyph glyph-name="Excel-01" unicode="&#59798;" d="M157.625 834a36.315 36.315 0 0 1-33.75-33.75v-832.5a36.315 36.315 0 0 1 33.75-33.75h708.75a36.315 36.315 0 0 1 33.75 33.75V637.125L703.25 834zM708.875 834v-157.5a36.315 36.315 0 0 1 33.75-33.75h157.5zM436.58 496.5L512 383.32500000000005 587.42 496.5H651.5l-108-154.935 115.38-165.69h-64.26L512 299.80499999999995l-82.62-123.93H365.165l114.525 165.69L372.5 496.5z"  horiz-adv-x="1024" />

    
    <glyph glyph-name="word-01" unicode="&#59799;" d="M703.488 833.5360000000001H157.696c-18.432-1.024-32.768-15.36-33.792-33.792v-832.512c1.024-18.432 15.36-32.768 33.792-33.792h708.608c18.432 1.024 32.768 15.36 33.792 33.792V636.928L703.488 833.5360000000001z m-67.584-657.408h-50.176L512 434.176l-72.704-259.072H389.12L281.6 496.64H337.92l78.848-259.072L489.472 496.64h45.056l72.704-259.072L686.08 496.64h56.32L635.904 176.12800000000004zM708.608 833.5360000000001v-157.696c1.024-18.432 15.36-32.768 33.792-33.792h157.696L708.608 833.5360000000001z"  horiz-adv-x="1024" />

    
    <glyph glyph-name="PPT-01" unicode="&#59800;" d="M157.4 834c-18-1.35-32.4-15.75-33.75-33.75v-832.5c1.35-18 15.75-32.4 33.75-33.75h708.75c18 1.35 32.4 15.75 33.75 33.75V636.9L703.25 834H157.4zM709.1 834v-157.5c1.35-18 15.75-32.4 33.75-33.75h157.5L709.1 834zM310.4 458.7c55.35 0 82.8-23.4 82.8-70.65s-27.9-71.1-83.7-71.1H249.2V226.5h-35.55V458.7h96.75z m-61.2-111.6h58.05c17.55 0 30.15 3.15 38.25 9.9 7.65 6.3 12.15 17.1 12.15 31.05 0 14.4-4.05 24.75-12.15 30.6-8.1 6.3-20.7 9.9-37.8 9.9h-58.5v-81.45zM521.9 458.7c55.35 0 82.8-23.4 82.8-70.65s-27.9-71.1-83.7-71.1H461.15V226.5h-35.55V458.7h96.3z m-60.75-111.6h58.05c17.55 0 30.15 3.15 38.25 9.9 7.65 6.3 12.15 17.1 12.15 31.05 0 14.4-4.05 24.75-12.15 30.6-8.1 6.3-20.7 9.9-37.8 9.9h-58.5v-81.45zM809.9 458.7v-30.15H732.5V226.5h-35.1V428.1H620v30.15h189.9z"  horiz-adv-x="1024" />

    
    </font>
</defs>
</svg>
